<mxfile host="Electron" agent="Mozilla/5.0 (Windows NT 10.0; Win64; x64) AppleWebKit/537.36 (KHTML, like Gecko) draw.io/27.0.2 Chrome/134.0.6998.205 Electron/35.3.0 Safari/537.36" version="27.0.2" pages="2">
  <diagram name="ShowingWork" id="UkwJ2qKx-RdRb4yqKAJ_">
    <mxGraphModel dx="1052" dy="825" grid="1" gridSize="10" guides="1" tooltips="1" connect="1" arrows="1" fold="1" page="1" pageScale="1" pageWidth="1169" pageHeight="827" math="0" shadow="0">
      <root>
        <mxCell id="0" />
        <mxCell id="1" parent="0" />
        <mxCell id="m7wP7DTs_LmqUB2sAlDn-2" value="" style="shape=image;verticalLabelPosition=bottom;labelBackgroundColor=default;verticalAlign=top;aspect=fixed;imageAspect=0;image=data:image/png,iVBORw0KGgoAAAANSUhEUgAAAN0AAACDCAYAAAAJQB6dAAAAAXNSR0IArs4c6QAAAARnQU1BAACxjwv8YQUAAAAJcEhZcwAADsMAAA7DAcdvqGQAAA29SURBVHhe7Z0rbzLdFsfXOXklBkNeUYWhBoWuorIJqkm/AKpJLZJUYpug+AJNqkgqi0KjaopBVWEw+HPW2pdhZpjrZthl2v8vmecpbPZtZv9nX2avWf/5999//0cAAG/81/wPAPAERAeAZyA6ADwD0QHgGYgOAM9AdAB4BqIDwDMQHQCegegA8AxEB4BnIDoAPAPRAeAZiA4Az0B0AHgGogPAMxAdAJ6B6ADwTL1EN3yh9/d3c7zS8435Po+bZ3qVOK/PVDSKomw88/vXUMGGL1LWFxqaz8lp3tDzq/wueqh07O9fghT0eShbF3Ax1EZ0N8+v9D5o0WpyR3d3ckyJ7os1vJvbDtFqTivq0G2Jllo63nWTGvs9UfPafDGkbmtP/E1AcppLGj9InSa04h/vVxNVx4fx0oRzGq3uQbig1tREdEO67zVoM3+goB1KQ30a87953NBtp0Hb7xl9rIk6hVXnGG+7prUVyLBLtFjQllp0paK7lmVL63WL+oW7dnDJ1EN03HjbtKHPmflchptb6jR03OX3lhqd22LDMtd49M2CalGXVSeai5TZOU1OdcziLfF7cLn8+oUUGc41Np+k2v7skzaNYkNFl3g3Vy31/5K7sVb3hbpk4htcy6KZ0ee2R/cYY9Yed9HZCX5wJCwWlA2rHD2c2wTdDTfcTaPAsM41nmH5wUPMtunmvmjH87Tx8sQ0mdnbisVc4mzV4hr9Perx3ktpBKMebed39GTbbBFMvIb5GLBf0eQhYz7oGE8Wex5pGloAEWRlckTj6apAmvq3nfXkkIYqS5MWd08sUwl/JFpvqdfZZdcBXCz1GF4ux7TYELUH4TsuN8CX0OqlvTuHl9LVaiI3arXaaY7JivbhYZ1rvLJUkuaSxostdTp6GAvqSW3mdLOnO5pv2jQIhjx8x3/LvtMPu23arz+iv5Gh3z57WOca77p51I8FZKUpQ0/9nG5EPU6i0RupOoaf9wXwXHDbSM8HXD54rToAnvn1q5cAXBoQHQCegegA8AxEB4BnIDoAPAPRAeCZXyA6/YwrbG5WP35DHU5lSC/xTQq/lHqJztWI9YIQo9bEh95/gL9c9zC1EV2aESv4LczoSa7rH9hPWpMdKTL0GBAlbniWodmImos50WBAbfXdhn8qG4QFHVd/z0Q2GGeF6XRlW5YmnGYsbDOnu5yd2HLTGB0SO6DifuXUoXx+mrT6SXqPRNMFNUfl8pPeqr+b0JQeg/psgusSi2fy4y8z6j6LnpujurnW4XKpR09XwIi1PejTTvWC8sqDtrGylgszoNZKv/5AhVGPRmrylBXGoc+P1NtyA1Bhchwu5vCFG1YQxvFag9xh03L8oH4/30i7sXnyEWpgyXVwyy+vfkQN6o1sfmZfqwnLy0/2ho6aCxU+We2p3dfzsJvnexaBTs/m98jx8upuwyWtKGXqwGGhc3bJ/JrVy8OrHJb0sd5TQ95TMrznu+6GFoGpzVKZ2Ozb3cwwe0kp/HfAkLptvqMGYpGd/5tSVuBpJNbBNb+suhvCr7+YfbIiWlf8V4H8pLexgvlY077RJCnpcvwUpCfxDnVwpFQdKsjPE+6isyYxwXGhBpL7HX2ZP4/ICJO7b9iqIbjT31xRi/vdg7UDH4Ng8FM9p+SXVfckWDxF8otYSyzH9GBHAbFrmzikLEvZOhThh9vuP+b/8sjJDs58DNewNL52tB/01HtHSg/Y7V1Yf9J2bebPzDBGzIl0djKvGLHwiB4+5LPvuYNjfjn1O4IbuCY9v/R+hM/RqEe04qGg6ZnUXI11fBJl61AEn203gXoML7myaUasmch7SPiufRjnc5x+m0dHb5lhx41Nv3JBoWzgDvOfsnxxQqWGoq75ZdX9CBYM92bSg51av+23aZXcKzzGerrSdS9Vh/pQK3s6WTk7jHT2fFOV8TxfCLXyd1jZ1HdYnuirL2KrX5HVsbQwnWakzUTiHYfLAkH0NQ1pxOKqdO3qZVodXPMrXr9oeunhdvUyKe/oCu2GVqsW9YI6COl1D+elCMqaXYf0c3a5wIj1T3LcYIE/fs3qJQB1AaIDwDMYXgLgGfR0AHgGogPAMxAdAJ7BnM6ByPOo4LnRaZwjTXCZ1Kynkwel79VaFzsYxqbvinfnlDRhHFov6iM6JY4u7Sps6NK7vDt6dwXAlZqIjnu4/o4md0+k9htXQp53V9m1YXvAkr1rpPe0vZBOL7ylUYm+0B7H5LKo+PxZtsZZ/wfqCNI0IwN7hOpge0ebhhyO2y1BSWoiuhk9BRbdFZFjGJtmkJmLCC7Se4Z9h7vhZhwqQs0yANVCTTJGBecFq5cpuBlkckNXu+Cnobin41SWIka6Kcao4Ly4i+6HDQHPTqycxQwyr0m8ZQXmLVXhVBYmxwA01RgVnBV30amLZIc8coQumGuYT8QwlgeYyd6EeS5kDTJNOYutKobs7irDtSxMvOeqwgAUnMzvGV7a3qDogkcBw9gsg8xk9NAvmmaU1pUpHc/9CvdYTGnj0FJGusAnNXk4LosCCYaOwevYGBGd+PQOf1eAZMNYSS7NIDPP6DIeV4ppjD5tGfWXNF93aFAgzfSyWPnEzk9QFlm9TDbgzTJGBecFO1IA8AxWLwHwDEQHgGcgOgA8A9EB4BmIDgDPQHQAeAai84Y8S8NOflAn0dkdJ+Y4ufHGzG/kKGMICsNR4EpNRMe9xGOH1tZcZr6h9qAK98fiKMOkOVkR9cRJCIQEzktNd6To7U2sGPfXgiu7N0kitOE68l1sa5XZXsZfJu+ZDLZYJcfTnkNLeFuNbGeLhWXFC231ApcJ5nRhlOVBi2RPsqtX0Tzj14O31aj306x4VXuFBT9LLUU3fOGegnuCt6pv6Mtv2to/Hb2K5sU78n5qjEpz8/PsFRacD3fRxRY2fBmxyo77gTS0EpYEhVFeSA2xchY2wykTT/Wshox4F+MVFlRCreZ02sRF7DnDLxNyJGFOp9Pf8jDtU80Z5f0i1vRFhYXMaZJNY/RcMznesQ86VYb+ju4evnPzOxDK4+OWXkdNWoTqAC6f2gwvcwVnewrXd2KyAKR32cyfzBfuXkWLGb/eaKNS8X5qKBavOq+w4GeoSU8XM8a0hFf4RHRljFhVTxdO8WDAKmiR24Zf3HA0Pd6xoWrY+2mZeNEVyvjKZjRdcHnAiBUAz+CRAQCegegA8AxEB4BnIDoAPAPRAeAZiA4Az0B0zsizwxMexoM/S22e00UfHms2p5j2MNG3O2uKP1g2D+wTHsbj7ckgi1qJ7pGmlTbkc4kDogNZYHiZhNnHGbZLEyFZiwi5AQS7+kP7Hu336Z5RAYDokhF3XvMNC+dRvxJi+KLNicxu/jSn/HkGrgAItRLdOXqPSJp8BMnOnlhURL37Z2UNINYHkA6oAvc5nd3Vbz7KzvjANs01rDBmZ728puCEXiR/7pWdj1rcSbB5w5wOZFFbK4O0Bl+GPHHo8DmtOwPqrI9/B9EBF+o5p+PeUow8N5+hxm4WPyp7bmbmcYvxTDnIJzu/K0CWgSsANenp4oaaUYNThR22FjViZaRHSnxO932vDFzDzwH1b/d0dzc9NioVsgxL8Vo8EKK2w0sA6goeGQDgGYgOAM9AdAB4BnM6cHZk00EasmPnr4GeDgDPQHQAeAaiuwjkud4pji5hUFsnnEUnD4vDG4XlKOqiSeLCndNvBTeAPE7q6SLmK3xgr+FPMaMnuQbn8GRUBnlV/XuXdjGTJxDFefUyfVOvDJUeiaYLao6iHke/ZIPw0f4pJtgmlb59yuY3pccgjdzXNSh/BVneVmM+EoItZLocYQ874c3NTmWxqPwPe8/06yHEwWuWl9a0cppy2ROWtN0sMT8VM/Vca0yehbew8e9fr+hNV4ZGnXVQRqxeRjnTnK5BvZH1ODqh1b5NfR5O5hl55nkVFds31fA5XAxI2/2cIczsk5tum7qhudKwyw1w88mNWRqddjkV5Ec9GhWcWJUui6AE0KKV9Z3OR/imdfDSejhnWhzp5UwzqFVk5Fe9B1fubY3IQDYniS7VAJQ5eBwt6sW0gFdRucOb8OXHmvaNJmWnOqM3EUSgOsljTytx4Tq857u8WBHYZsL5TVe0b3fN5xxKl4XFI66xVtPoRu0Qiecso5zZt4es/Ip4cDVD1uA3oCoqndOddH0KeBUVX25B+5FXKhQwflWCsA102OXh0uLQCPc7+jJ/lqV8Wa6pyUO5wAddGZzKmZEfPLj+KGcaXroi85iDiNVx6pDFOE6Uzk6GlhEbvHjvdN0MWbRXTciZY1mcypmX3xnONSjEj4gu0cjzbF5F9dCp3X+lfmtFMrJUmPmenjcJdjj2Zj4Tta5MGM+NEheASqGHjO1BOR/rWeXM7lkz8it0rs3Sf+XXA1Q6pys6EV+Op3oxwMZVF5bF8aAn9C5pZiINt8GiCQ8J1ZxlTtugDnphQS806HkT2bD+juYVLIPLosdk1YoM6/Lrl1VOWWTR6aibQtucOyOU9PzOca5jZWmY6/v6TBPuRcGBP7LhWe7asjKY4q8cnBURYhoyrP1rXNic7jwMX+R5U2gBBYAf5FeLzm5VG/Bczi7vA/DTwJ4OnB0ML6NAdAB45k/M6QC4JCA6ADwD0QHgGYgOAM9AdAB4BqIDwDMQHQCegegA8AxEB4BnIDoAPAPRAeAZiA4Az0B0AHgGogPAK0T/B/Pf2FOooZ9aAAAAAElFTkSuQmCC;" parent="1" vertex="1">
          <mxGeometry x="400" y="120" width="221" height="131" as="geometry" />
        </mxCell>
        <mxCell id="HfD-1GeGWzYrt1UgfEGJ-2" style="edgeStyle=orthogonalEdgeStyle;rounded=0;orthogonalLoop=1;jettySize=auto;html=1;strokeWidth=3;" edge="1" parent="1" source="m7wP7DTs_LmqUB2sAlDn-3">
          <mxGeometry relative="1" as="geometry">
            <mxPoint x="980" y="196" as="targetPoint" />
          </mxGeometry>
        </mxCell>
        <mxCell id="m7wP7DTs_LmqUB2sAlDn-3" value="" style="shape=image;verticalLabelPosition=bottom;labelBackgroundColor=default;verticalAlign=top;aspect=fixed;imageAspect=0;image=data:image/png,iVBORw0KGgoAAAANSUhEUgAAAPMAAACYCAYAAAAxxd+mAAAAAXNSR0IArs4c6QAAAARnQU1BAACxjwv8YQUAAAAJcEhZcwAADsMAAA7DAcdvqGQAABNLSURBVHhe7Z0vb+NMtMbPvTikxHpBUUiXBBUHdWGloEr7BYIqlQZWhaWVgvoFKhVFKtyi4KCShgQtKikJv3fO/LHHiT32jJ3Unjw/Ke/btWPPjO3jc2Yyz5n/+e+///6PAAC953/1/wEAPQfGDEAkwJgBiAQYMwCRAGMGIBJgzABEAowZgEiAMQMQCZg08sOMH15odjlQ/9gs6PruWf3dgEOcE3Sffnjm6RO9vb3pzws9jPX2KsYP9MLHvDxQ3UMkoccF1HN5/4eur6/pcbXVW5rT5JzTpzd6qX2BQZfovDGzl3mbJLR6vJYP6PX1nOimnpGNf18QrRa0ogv67fF8hhzXpJ4AtEHHjXlKNyJc3Cz+0P1Sb6Il3d/di/9WMabfFwP6+vdMf9dEF7WtOeS4qnqO6eHFeGxPj5/z9sZrqvM9TdVXGPkysTeUUlwXebz492RINLicZfvTc07pyWzjj9UG483NOfhTqyqgVbptzNMRDWlDHyFdvvFvuhioY5f/vmhw8bueAYUcV1HP8cMN0dx47Efh8S/ptk4oy4ac8/bX9Cd7WwRRVhcTmi82RNvVY1qe6m/zC2BCSbpdHTezLJZfALOzd7mfw/vhFaKSYxPtaDaHyoPNB0n7ev6gzaBeyBx6nIvl/V3OY/9db2lw9kv/uwxhQFdDYVhz69jmBNVlekOX4gX3nh4ooo75irbDkfDXmu2KHvVA21KENNvBGVW1ELSLvzGbwaH085Td0NB9raNC5U3qKp/pYzOoETKHHlfBTtvTkWYnv+hMfO3rX4uWzATVRbD9pk/9ZxHb9V/dpRAs7+nP9Z16IbroxbPUH/yNWd4oE6bxx7ppofvK+PwmEbDRyPdOyVCZaDjJbrjsC1aFzKHHOesp+pqzSxKxctr2eqPMn/Td3gC3JrQugl1P++uMar4Gyjnms3QCdDvMFjftXfThhhP7zSvCzyerP2be0vagEj9oHPbZN/xRhIV2yBx6XBGOehpSDyvKva3lDVUInD9nnuRcV0r0rWt7WIGrLp/iDbL38uLuhnhZXaX9fNMFeIURdYjO95mf73hQZkgT7Snf3m6JXt2j2dOReNDssI9Z/qX11h0yhx7HlNWTQ/VXHhAy3n52RuvUG/LAktoujXE4Ud/RA0s8KPW4SqxzmtFs1WclM+p89U2LWud01UWxvJ+rwS3ebx13d72gr3SUe0aXX4vGg3GgXTADDIBI6LxnBgDUA8YMQCTAmAGIBBgzAJEAYwYgEmDMAERCj41Z/Z7ab3VODG1oilZj+SjJQCH9MObQ5AQd4pRF/0h4cBw6b8xlon8QCzy7TNzXP3U06sBFx2eAcQg2IVpc034aKw5RZ3T2viCaTGgot23EV82ke3Ws2i7gOdfpA+Pap86bTVm2z7mzr0Z+LX4ZFc6blsd+VrTBvzxFWfv4fLdE83c6m/mVx9716vuR5nSbtmeT3ped43R5YqOj7c/5a7PXttA2nC7d9sw1khMMJ1f0Lb32I622RgzAN7xMTO/aJ/Y+3Mp5x6nQwnpIpk/igU33ieOSSWX46Bb9K4rbEFZeVfuIBnQ5M+Xp+eR6X1V5ZQkIwhIeZNdmX7nl0waxz7pmp0zvR7OzVD2W0N4hpq8ltLf/TpnSaCg8QGqE4rj3Tf0MJg4K2xBanqvtGju90fOHsLTkXPxVozz2jsYQrQQEYckXHHi1oYXyIsHfmF3C8NB9h8AlpnfsY29hq59SzzQ+p0TECbaC6Y3FzoeiSXkViQT2EEZZp7zSBAQ797YwtPbFtw116MuzG4i/MYeKxl37yghNTsC4xPQVQnuWM6o6KtlfFmpy38xug/ikfe1DEFiebyIBYTiKkPJE3zY04YEL3zbU4ZjP7g/Q7TBbXMQq0X8hDjG9n9DeyvYhdc1Z/9KXQtG/i9DyXG3fQxii8L7scZu2zzvhgQuvNgBDL/TMPJKaRXxb4QS4vyRusBwJzka65egoD9DIDTujobnR0rJ96py5ZzF33P5+HtipJ9LfOVae14xml7UhtLz67cufr3y/Gc0uKjs/Yr+h1Sqhy7QNTHnb7bIkaV3dbSi/ZqcLkhOcFPuGAOKh96PZAAAFjBmASECYDUAkwDMDEAkwZgAiAcYMQCTAmCtwaXH39/Fvo28BQvvQ4wDI6IkxH+BhN/Ntj2RArpcCAG3QfWOWWUZG9N3GfF8LXrqVVgtaUfMlWzNChfYQ6IPmdD85wcs5vYqHnHjK3sXaSiLQhGwm1Ov5C93SvNaURte+MqF9fqqjhf5O2XGKnSmNEOgDBx33zMJjHcJbyaVbVdKD5b+vnAggL9BXwnqDa1+Z0B4CfXAsTnIAjEPsweZDeTFW6JglW0U/+ion0Ldw7TsEEOgDT/yN2SXUDt13VMb0+2JAmzQX0TN9bKqXbP0RDiHQB9Hib8x9F3jLEJs10tmLheWVHGp3jkMI9EG09D/MNh6/7k9MbBA8kGS/WB5F+CpCbdGBpi/KMpvw4FSqo3btqwEE+uDQdNyYeRBIeU854ju4VCv6N/hteDpSmTVyg2oyy8aAXh4+6W4hTEh7bRa8ZwNTz459O/UcTuTfb1bWjuX9XA1g8fZ0n+s4/rlKpS2S297U4FtRcgAAGKimAIiEkxzNBiBGYMwARAKMGYBIgDEDEAkwZgAiAcYMQCTAmGujfhMOXPDhB0DCg1Oj+8a8M6e7HWPSD3rL5z12AgIkPAA2HTdm4Q1vL2it1xK+ljOwXqjZ88se1pYWqs+xxFDHAwkPTo2ezQBTYn1KV+wPgD39jF8Q2RrFGWzoZesYmXWhFkSTfEKAz4oEBOxBeZ2mOd2m39ukbVBlpoenCQg0nGnFmgTOmmj7PDmQ8OCkOb0+s56HfTkL8/DDiUkIwAkH1KqJVQkImMHlTL0UxHae0z28Un3Z8cONMCD9fZ2A4NZUTBpyQisTmYgPz81GwgNQRK+MefokPIbwJK+NXMWS7v/wg07iwVX9ZZ9+Z5YQgIVNwpqGo3q6bPaAxtj+rmmr5Y3L+zsrQrCTDAjDkyqpeUEEEQgSHkSNvzGHJiBw7auBkhyKsK+lPqDxXix/FFadUzjVRi4GX4+cUktqu3X4unNdsvD5F52JP9N1j9sCCQ+ixd+YfyA5geoD8uL8B+i/iXrNORxNzvUGD6Q2uolxiP6ralh6XbLQ2FrovU2Q8CBaOh9mZ4ZcNGAlMJ4t+PdUlUZIuED9b7brrM9aONAk0WGw5XG9ExBoUu8r2nKblqfC3OGkPIJBwgNg0/1Uu/bIq8Ee8WVjFtYus4fUCcF3Rocl9oivOR//Lc65WF/QxBrNtm3bpNnN4AEm6zs7o9lFiQVyI8/C1FarhC5leao++f27ZRaVt19PSdrGnWuablfnKh7J1xtAp0FyAgAi4fR+mgIgUmDMAEQCjBmASIAxAxAJMGYAIgHGDEAkwJg94N9d0+mo3tM/+fddv8kt1eX5n7MZxy4P+NB5Y+YJF+kDLT4hU6hz6BljtrhClVE9V7xcjaRoO1lAVXmHoO02gOPReWN+vrPmcz+uKGmanEDOpxbGkaqBpjRKtrUFE+EcIlnAsRMQIOFBl+lXmC0Xb2uBrzWtEy1dnI6I3t/FeRPxqPKUxrz3l6FuRThgwmG5mmS6NpT46OPKw2Uuj19OOnyVn3pqssoQnKetpue0va1qY7pPh8zhbWDs+otPGoaHtw/40y9jFoY33K7pb2O38I/+rhO5oiPbcrpUcyDhyQIYOyFAlvCgCuc5S5IaMGXJEMLbwAaLhAddoAfGbHkS4TY2781CvPF5Iv/PCQKS0RON6KN9WaUnewkPknPt2UIQ18uR1KA8GUIgSHjQGfyN2UgOi8Km0H1OVGYQ89b/vmppgIbTByUippRu+UDa4VB2NcdeVCQ12LkP5RJPD5DwoBP4G/MPJCfIaOfNvv3mR0+9JDJ1XwsPdVs0Mg7Xi0n0XUuTITQACQ86Qb/6zOJhvBGeZGN3co2nafG3z3rJCfYJTU6QIYxNdCX2FoP3ojqpQXEyBAUSHvSXjuuZub+cF9pnKWo1bMweyQmKEwWocqQw/1OfjzdXJCeQ2IkNdutbmSzAlfBgv+2SynOquvDoc1FSg/z2/WQI/m3g43i0GgkPfhokJ/hR9h92AELpWZgNACgDxgxAJCDMBiAS4JkBiAQYMwCRAGMGIBJgzIVolY/3RJRjHwdARn+Mua2ZXjvSQP5AjA9ioCej2XpyxdeGhsl3vWVoypDyQF6vXc8N1zPIeL5yflYYAP2iF555/HBLl7Si1w+9oU1YALLY0ODyRs5lLhXhS4++M9/Z2uYW7/PLSO+Tn+w87uN0+G0+aVTC54PoH+TpvjFLMYBwnPMDpqqR6ywnxPqKUhG+FhRwQgOD1EZvlB7alSxAvoy+FqlSyVaMQfQP2qLzxjy9kZZcKLRvjVrpiJ7pVRjcMLVmXgpWVO215qTqoU5TVBeI/oEn/sZsBqKKwrvQfWWIMHaSrGh+6L7s+Fz45Wo4Owkbk6z3+DddUL0URux9ZTog3fbaA24Q/QMP/I35iMkJpiOZXY5m5gWgss3Jf+91LxswFi52IHxzWXKOFM5OIsJZds58DHnojrMsowv6upzVM2iI/oEHnQ6zc2l2+aOyzdGj+DuVDBqPH/qTlfD+rO/dLKpfLsKaZTibnE9FiP1lhcA+1ExRBNE/8KT7A2AHIQt533QWS/VyyEadpYB/OFHfscKA5f278KwTuvyyEwG6jsv2qc9MDoZlCQjKjuMc1cqL7x8HwD5QTQEQCSfqmQGIDxgzAJEAYwYgEmDMAEQCjBmASIAxAxAJMGbQEkiw8NN03phzEkH9aTaVc3cSh/h4nJBXxOhKMoNW66Jn0tnn4/P/iLSyS3XpEb3wzLn1gu2pnA3gZW7U+Ra0GU46Y6A/Bs/73m6JUuXVlEbJlurMPFXwjDVxPZskjjA0rstpgjB7b670jufWXttECErrYaZYmv3qGNvBy+/rDcaD2lGG2sXH+ScZcNeFKUtqUMHXmtaJVoXxKvTv7/Sldd6mjUXnzEVP9kUIbJ/Epy5pma7y1DF29ex7FAMwZpYyDrKVEadPag608tqPtEqU1zZJBJTWw4oUaoYJbHRywTRxDCciGF49mD3eSQbcdeGH1pXUwMU/+rtOpCqM7Se/2OYN0VyXo895q+vpSswQ0j5FeV3K7pHidJM29MKYi71PM4YTfb7ZBa1ToYUI54YbWqQGuqT7903DZVo1rPbS55W66MGZ/JtpNcmAI6mB68rJrCkCrlsyeqIR2UISsf3+zkoQ4VdP3/a56nK/LL9HhlNN2uBvzKEJCFz7HJi3vv0WbsOgVZ+Z39wDuvitTVUmKbAUVfzhWLYFcmsuS233nf7HAWiS1IA124los3SFVhdk5/5ly8IekKK6HPAe9R1/Yz5icoJ91Ju2PfRbXSfzU4i3fq6e4tPGoM4xCUxqsP3mV4C4Jn/sQcaB9IZPOoOpuSbFIXV7lNVFUXyPTp1+9ZmFd+CV/jf5zpzyGKG/bz6/Zv0qnUlk4vD8n8I9lIXdiRqd4U7dUTxXYV0cSQ38X555zLiCuQ8/Qo175OLY9+iYdNyYd0Ytc/3btjDe+ZYexuwJdChvyhQf+2er5f1cDSiZ/fKhEseJfimZvv3VNy0O7LmY4rqEJTX4dVb+YD9NdTLDdJzhjNZp+7J7tJ9gIQx3XarvUTE/c4+OCZITABAJ/QqzAQClwJgBiAQYMwCRgD4zaAQPJpXBPxmB4wHPDEAkwJgBiAQY84+yr+TxQ6uDkBAACLyNWYnE85/qH+wVrYrpAQA5gjzzbrIALJnyU7SYEAD0Hu/RbPauV9+PBQbMIeMt0fydzmYTUjoWnhB/R58PL8XzYDcLS4M7o/Qr6fasvDndpudgxZNzSuf0id4mJMtOv5bbxuGpqaOA5YnSIFQ9zt6z87OAXeqQxYaguhhk+Zm6h1+IrA1Q5S2IJvlrpltfUk9dL3PBrOuVUliePLL0Wit0mUXnLACj2d2h5T5zsTC8StjvFpsrPfOusN8ZrGuxQbouukAuD7thXSw/zKHi/YC6MNKw1AJ1qsx8NDOcFInp3fV0JgRwlFd1rUF/CTLmXLIA8bHtwF8YXiMhQIGw331WLQxIrZnL2NLqVZzDId6vhXddhFFK1dJcX5d9Cq9ZYJIBd3l1ki/o0D39DugLrfSZG933GmLzImF/VZHS0MyDPx2JsPE9e7gbiPf96/KLWASUygd9CKqnozwI+6Om5TA7lGKxecDjn6F1ryqH1DCvgQ4U74dRc3H1IoLqWVXeAa416ARHNeZCMX1DsXk5KoQcXr3QVbIijrAlDvG+oV0Buwqdh5OaWSkNwUkGHOXVutb6t+vW7wc4NK30mesOoJQK+4PE5jVggxgIY7RDY9knLBPvq35p2wJ2Hqx6XCW58La6fa568uCYOo982ewkBCgv74DXGvw4kQst2MvwSLEZYAJtwy+DMjiEB8ejI33mwzB94t9LrYEvACImSmM2U04noq9sfkYCIHagZwaNQJjdHWDMAERC1H1mAE4JGDMAkQBjBiASYMwARAKMGYBIgDEDEAkwZgAiAcYMQCTAmAGIAqL/BxcS5dwOfaOoAAAAAElFTkSuQmCC;" parent="1" vertex="1">
          <mxGeometry x="679.5" y="120" width="243" height="152" as="geometry" />
        </mxCell>
        <mxCell id="m7wP7DTs_LmqUB2sAlDn-12" value="" style="shape=image;verticalLabelPosition=bottom;labelBackgroundColor=default;verticalAlign=top;aspect=fixed;imageAspect=0;image=data:image/png,iVBORw0KGgoAAAANSUhEUgAAAPUAAADKCAYAAAB9nQYdAAAAAXNSR0IArs4c6QAAAARnQU1BAACxjwv8YQUAAAAJcEhZcwAADsMAAA7DAcdvqGQAABmRSURBVHhe7Z0tb+tKtIbXvTikJDqgKKSbBAUXdcNKQZX2HwiKVBpYFZZWKuofqFQUqXAXFQeVNCRoo5KS8HtnzYc9duzxeGwnzuR9JJ/TbcfzYXt51oxnvfM///333/8RACAa/lf/HwAQCTBqACIDRg1AZMCoAYgMGDUAkQGjBiAyYNQARAaMGoDIgFEDEBmYUXYALu9faDEZqH9slnR9+6z+bkAXaYLjpL8t9eyR3t7e9PZC95d6fxWX9/TC57zck+8pktDzAsr5cfeHrq+v6WG11Xua0yTN2eMbvXhfYNB3emnU3Oq8TYe0eriWD+r19RPRjZ+xXf6+IFotaUUX9LvGcxpyXpNyAtAVPTTqGd0IN3Kz/EN3H3oXfdDd7Z34bxWX9PtiQN//nunvmujC26pDzqsq5yXdv5gWvKYHkGn9TSuq0nucqZ8w8qVi7yiluCzyfPHv6YhoMFmkx5M0Z/Ro9vFm1cG07iYN3ryKAjqnf0Y9G9OINvQZ0iW8/E0XA3Xux79vGlz89jOkkPMqynl5f0P0ZFrwB+EBTGju4+KyQWda/2v6k741gigri3HZlxui7eohyU/1x/lFMKVhsl+dt7Asl18Ei7N3eZzd/tEVvJQ+ENXoN7vQg80nSTt7/qTNwM+VDj3PxcfdbaYF/7ve0uDsl/53GcKQrkbCwJ6sc5sTVJbZDU3Ei+49OVF4IU8r2o7Gov3WbFf0oAfkPoSLsx2cUVUNQff4GbUZREq2x/TGhh5rHeVCb5Km85k+NwMPVzr0vApydU9Gpp38ojPxs+9/LVo0E1QWwfaHvvSfRWzXf3VXQ/BxR3+ub9WL0cVRPEvHjZ9Ryxtm3DferJsXeqyMrx8SjhyN694x6UITjabpjZd9xSpXOvQ8ZzlFX3QxIeFDJ3X3G5X+op/2BsQ1oWUR5FveX2fk+TooZ5/P0onSP/db3Lx30ccbTe03sXBLH63+mnlr24NP/MCxO2jf+AfhLtqudOh5RTjKaUhaXJHv3Kt1VK5xNs0sw3NdKNH39m5xBa6yfIk3yc5LjLsh4qV1lYwDmK7BK4yp5/SyT/18y4M3I5rqlvPtbU706h79no3FA2e7g8zHX1pv3a506HlMWTnZhX/lgSPT+i/OaJ20jjwApfZLoxxN1W/0ABQPXj2shlaaZvRb9WnJjFJf/dDSK01XWRQfd09qEIyPW+fdXi/pOxkVX9Dke9l40A50D2aUARAZvWypAQDhwKgBiAwYNQCRAaMGIDJg1ABEBowagMg4MqNW32OPOxoohjo0RUd/1YlcA97016hDRRJ6xCmLD0B44XD00qjLxAdALPBsNXFf//jEyIO69HBGGbtmU6LlNe3KbLHruqCz9yXRdEojuW8jfmom96tz1X4Bz+lOHhzXMZVuOiXaTjN3zEP/i19KhfOy5blfFXWon5+irH6c3pzo6Z3OFvXy49b26ueBnmie1GeT3JfceTo/sdNR9+fstdmpW2gdgE3/WmoPkYTR9Ip+ZCv+QKutCTrgG18W1O86Jo7ez+W85iSgw3pYZo/iwU2OifOG00q30i0+oCiuQ1h+VfUjGtBkYfLT89X1sar8yoQQwoQX0muzGylWpw7imHXNQJajHP1OJYSsgH9HUL9XwL/9d8KMxiPRIiTGKM573/grqjgorENofq66a2zZpedPYXHDc/GXR37cWhqDtIQQwkQgHNSqQwv5RYyfUbsC1EOPdYErqN9xjFsPO9oqaakuz2ko/AY7YuqNg627okl+FYIGOwjj9MmvVAghd28LXe661K2DD8fy7LaIn1GHBq+7jpURKpLAuIL6KwL+OYxSlVGFG6YuKPfd7DqILemLd0FgfnUFDYQBKULyE33fUOEFF3Xr4MM+n92e0D/3W1zMKvGBQhxB/fUC/i31ERlXnfY/61IoPuAiND9X3XcQBilaY26Bm9avtvCCi1p1AC56G0/NI6+pJ7gVjQL3p8SNliPH6ci4HE3lgRy5Izd6mhldLTum0sw8k5nzdo/zAJCfWEDuXJmuGf0uq0Nofv71y6ZXftyMfhflnR3h39BqNaRJUgemvO52XpKkrO46lF8zYAORhOjZNQgQN0c5+g0AKAdGDUBkwP0GIDLQUgMQGTBqACIDRg1AZMCoC3DFAu8e42+rbwEB/6HnAeCmx0bdwUNv5vPuyZBcLwcAuqKfRi1VT8b008Z8YgtespZWS1pR86VqU0ID/iEUALqhnyIJL+f0Kh524qmAF2tLzKAJ6cyq1/MXmtOT11RJ17GygP/sFEoL/Zuy8xS5qZIQCgA16WFLLVqwLlovuWStEl/4+PedCTbICgWoAH+D61hZwD+EAsAhOZmBMna9B5tP1apxRJBZqlb0s68yQgEWrmNdAKEA0AJ+Ru0KGA89tlcu6ffFgDaJRtIzfW6ql6o9CF0IBYCTws+ojz3QXLreHKOdvmA4rJNd8N7RhVAAOCmO0/02HoDvpyk2DB5wsl8wD8KtFS646GDTN6VKKzyIlcRxu455AKEAcAh6aNQ8WKRaUzlCPJjQoo4BFzAbK6WPzOCbVP0Y0Mv9F90uhSnpVpwD79MBrGfHsVw5R1P595ulIvJx96QGunh/csx1Hn/mUnJKct+bGqQrEikAoAxEaQEQGScz+g3AqQCjBiAyYNQARAaMGoDIgFEDEBkwagAiA0btRH1TDlzA4gBAeAH01ahzc8bbMSr9wLec7r6FECC8AKrooVGL1nF+QWu9lvK1nNH1Qs2eY25x7ZBGte0r+Gp/QHgBHMWMMiUaQMsGRsgt/4JfFOkazSls8GXrNJl1r5ZE06wwwVeFEAK3qLwO1RPNk99tkjqoPJPTEyEEDSu/WJPMOSbbTicDhBdAjtPoU+t53pNFWIs/mhphAhY+UKtEVgkhMIPJQr0cxH6eMz66Un3dy/sbYUj691oIYW4KJg16SCvjqYiN535DeAH40nujnj2KFkS0LK+Nmo4PuvvDDzyJB1j1p+v0S1NhAg6kElY1GvvFhXOLaIzu75q2Oqzy4+7W8hhssQNhgDIq66nAowgEwgsnh59RhwohuI55oEIdhTvYUh/RtGYcdimsOxNR5Y1cFN+PTGSYjC3Xbm3uuqRu9S86E38m6z63BYQXTgo/oz6ASILqI5JwQzvo34lyPbGbOjzXO2ogY7ObGIno36qKJdcldZmtBe/bBMILJ0Uv3e/UoIsGtgSmpQv+HqvkjUSTqP/N9p32aQsHpCTaPbZa4NpCCJqkNRZ1mSf5Kfd3NC33aCC8AKrop0SwPVJrsEeI2aiF1Us1Ex/XPDeaLLFHiE16/LdIc7m+oKk1+m3buJEHTuGBKOs3udHvIoGDzEi1MLnVakgTmZ8qT/Z4Ps+i/HbLKUnqmLumyX6VVvHIv94Bjg6IJAAQGafxSQuAEwJGDUBkwKgBiAwYNQCRAaMGIDJg1ABEBoy6Av5um0xzrT2tlL8P15skU51f/TSbse/8QFN6adQ8cSN5sMUWMkU7g56BZgdxqDyq56KXRz8p2hYtqMqvC9quAzgsvTTq51trvvjDioZNRRLkfG1hJEn00YzGw613YEY4XYgW7FsIAcILx0b/3W+5SF0LfK9pPdQhk7Mx0fu7SHcoHlmeKpn1BqQLXOEeGDdZrp6ZrH0lNn1euRvN+fFLSru1cvOLXqt0zXk6bJKm3fqqOibHtCsdXgfGLr/YEvc8vH6gHfpv1MIAR9s1/W3cTPyjv+uhXMGSbTpZqjqQcNECxhYmSIUXqnCmWSKuwJSJMoTXgQ0Xwgt9padGbbUsohnZvDdz/S7Ph/L/LFQwHD/SmD7bD+esyY7wwvBct3QhiOvlEFcoF2UIBMILvcbPqE2oY5E7FXrMiVIqMa3Az1VLAzksazQUvqZspjuKXQ4lH/Nciwpxhdx9KA8trQGEF3qLn1EfQCQhpZ03/faHH0H1skijClt4uNuikZG4XlCib1sqytAACC/0lv73qcVDeSNalo3dCTYtT4vfTv1EEnYJFUlIEUYnuhg7i+LXolpcoViUQQHhhbjoYTw196ezAf+ptK6GjbqGSEKxYIHKRwoEfOn0eHeFSILEFljIl7dStMAlvLBbd0llmqosPFpdJK6Q3b8rylC/Dnwej25DeKGPQCRh7+w+9AC0yRG43wCAOsCoAYgMuN8ARAZaagAiA0YNQGTAqAGIDBh1go4qqj2hZd/nAeCm30bd1syxXEgibxAFALHS49FvPUnje0Oj4Y/f8jplyLBEXrdezz3XM9J4PnR2lhkAx09vW+rL+zlNaEWvn3pHm3CgyXJDg8mNnCtdKgYgW/jcfGprn1tEgF9K+pjc0nTc52m33GyJl8LpQXwAVNNPo5ZBB6IhfepQQkeuMz0kjuMoFQPQgQssrGCQsdkbFY/tEi2QL6XvZRIZZUeoQXwAdEkvjXp2Iy26MOC/Nbxkkp7pVRjeKLFqXgJXFO3Vc9L2SMsn+QLxAdACfkZtBqyK3L7QY2UI93Y6XNFT133dy3PRTlfDailsVLLcl7/pgvyklbg1ljJFuu7eA3MQHwAN8TPqPYokzMZSBY8W5kWgVPHkv3e6nw24FE3uQLTVZWIhCayWItxcbqz5HKoR95yqoi7pe7LwM2yID4CG9M79zsgD86ZU8ehB/J2EKhoPIPRTl/AGOL54s6x+yQirlm7u8HwmXO9vyzWug6d0EsQHQAv0c6CsE1JX+E2rbqqXRDpKLYUERlP1G8st+Lh7Fy3tlCbftmCh67z0mNoWctAsFUIoO481tlWrvnseAH4gSguAyDihlhqA0wBGDUBkwKgBiAwYNQCRAaMGIDJg1ABEBowaNABCD32kl0adCU3UW7MpovnJIGKrkSCv8NEXUYVWy6Jn5tnpcfoHCensU1mOnN621Jn1ku0pog3g5XtUekvajKa9MdSDwfPKt1uiJNJrRuPhlnxmtCp4Bpy4nk0ELAyNywIMJ+p+5+di51py3Yobj0HFlJipm+a4Osdu8OXv9Q7TotpehzrE59UXO3CXhSkTV6jge03roY5C49X439/pW8eZmzoWpZnxpuyLEFg/SZ2yJHm68lPn2MWz71GsnKZRcwjlIF0Jcvao5lirVvyBVkPVihsxAxVTYnkOnm4DG59cGE6cw4IIo6t7c6S22IG7LPzwusQVXPyjv+uhjEJjO8ouLnpD9KTz0WnOdTldAhEh9VOUl6XsHikgHmHTW6Mubo2aMZrq9BYXtE4COoSbN9rQMjHUD7p73zRcnlbD0WU6XRmXPTiTfzOtih04xBVcV06quAi4bMPxI43JDlgR++9uLaGKeuWsWz9XWe4+yu+RAeIRKX5GHSqE4DrmwLQC9lu5DcNWfWp+kw/o4rc2WSmWYEVw8cY+bgtk1pyWseW3+h8d0ERcgWPGh6LOsmm0uia5+5cuh9shRWXp8B7FiJ9R71EkYRf15m0P/ZbXooMK0Qpkyim2NgZ/9kmguML2h18F4pr8sQcjB7J1fNSKq+aaFLva7VFWFkXxPQK79L9PLVqLOQsaZDt7qgUJ/T76/Jr2u7SyydThCXyJ5qLMHR+qURzu9O2lJSssi0Ncof5LNIsZdzD34SB43CMX+75Hh6aHRp0b5cz0f9vCtNZzur/klkG7+CZPsdmfuz7untTAkzkuHy5xnui3kun7X/3QsuOWjCkuS5i4wq+z8gf8caZFF5NxiDNaJ/VL79Gu0EMY7rJU36NiDnOPDg1EEgCIjP673wCAWsCoAYgMGDUAkQGjBiAyYNQARAaMGoDIgFHvnd3IoXroaCQIE4ASvIxaBatnt+oP/4pWg/pBb8g/Ew3mnYCW8W6p86IFWArmULQoTNCAzJpnDysaTjmmWR8EB8VrRhm/la9+HgoMmV3JOdHTO50tpqTiZnji/S193b8Uz7PdLK0Y4AUlP0n2p/k90TxJgyOsnFNFZ4/0NiWZd/KzzD52W00ZBRwWKQ1DlePsPU2fA+llHLTYEVQWg8w/jSbiFyPHIKj8lkTT7DXTtS8ppy6XuWDW9UoozE+eWXqtFTrPojS94PM5ntmEP4JD0kKfujhAvUpgwB30ruKp8wIDzoZABzUk68ML5LK4G47L5Yc6VEQgoCyMNDC1EJ/KM+vdjKZFQf3ucjqFCRz5VV3rxszGNNr6rdsNusfbqDOiBbk+VP0AdQ9hggKBAXeqOgAhsWrOY0urV5GGQ0TAi9plEcYpo6SeSluuwmsWKHbgzs9HBEK79MlvfOAXkH4ehHeweT+yUNWICe5T17r/eTyC3osEBqqylAZnDIBbj817+pA3EBGoX5ZfxEFHSdhiHYLK6civM4EB8XL4Y56HB/q5woBoX2jB/Q6lOOg9wAxSdNyt0rgSrYcdgx0oIhCG5yLzRQSVsyq/Dq51BkgI9YnOjbowqL9h0Hs5yrUcXb3Q1XBF7HlLHCIChnYD6dVDPpp6qmgagsUOHPl5XWv97Tv4fszoRlyzzEsUHIzgPrWvq1UqMBAU9O4BG8ZAGKXtMss+Y5mIgOq3th1Iz4NaD6thxu2trp+rnGkfVr50csIE5fl1ca2t/rTc5CeGloUsQCgRiiTg8wo4bQ7Yp+6G2SN/b7UGyAA4MaJpqXmSiBzUtSZrAHCKQKMMgMiIzv0G4NSBUQMQGTBqACIDRu1EfY9tfY4MAB3iHXqZny6chvW5KQ/bPAbYqLNhmcdIJmRT4x0+Co4O75Y6H9BxnEZ6urQakAN6TTwiCY6yqHjqEiGEzzG9jX9oNZyIsmxptVzTxXRCg+2Krv/81eeVCRq0XQcml+bOd/f6ggZc17koCV7Ep0ELfeqeiCRIistSyWgiDX65EedPz+j9ekmbwYU+aAsa8G/S4Igu6nB5fyNeTCovmSZNaN5onjY4NbyNuv8iCYr6ZRGIvExEV1FEVJomx4uIt5QUV+imDh93t9YU16I6hAga5O4fRv6iJrhPXfOZytKRSMJe+PohGcPVVR3M2tt6K+zC1MR4TUnrzxFbMOxoOeAnLe6bpi8JuR3DnG0WLdj+6H+0XQfRX15MiKwXaKEeWSNU6w/ipXOj3q9IgpvmQgiXSrRAtMBd1iGRJRKt9nynnA0FDXSaEDSIl+A+tW+Q/d5FEgppJoQwmpoyLuhibb4CdFEHLZ5o8luc0bpxS82j6Wn53hYXtH7AJ62YQZQWAJFxwD41AKALYNQARAaMGoDIgFEDEBkwagAiA0YNQGTAqJ2ob7z7myOz7/xAjHgZNYcRJpMX9OY7yYLP7W5SCfBDz0Kree/AceLdUkMk4Vjh1t9e81ot6wNvIF4gktArkQRTzrL8mJoiCXIxel7qKk0jqbvP+eDoaKFPDZGEdutQnl8wuTWvP/59c3SLV1nA8eFt1BBJUH93LZLAFOWXXu6aIglyFdAJ3SQJiJa+lUXnQV8J7lP7PlOFQCTBH5NfMOIlINylNNJsTJ/sPn3/S8sGoqIF9zsU7iumLwm5nbxIQgE6P9t9rs3zrVXGW/o6HwqPvFGKoMd0btQQSWhCml/6omgmkiAHyS7W9LQz6AliIbhP7futEyIJ9SnOLxQeUU/LJwfujsEjAsFAJAGAyDhgnxoA0AUwagAiA0YNQGTAqAGIDBg1AJEBowYgMhoatfoGuuc5JK3DEzLMd9y9rjHFEVQm37cX6uwz/UHQk2Re/IJYQHtUf6eWoXtFAQAbur5+1aGCcaz4UBaSWB562gQVQklea1YrZPlyM+H81rwORYd56n/x/H//a6DP5aCWfU124cUFFyps1uS5/2t2eKpb6mTeMIcy2oEdt/oHIAgZELKhuktatRpY44S9sCbiCjqabG+z10R55xP63mz0v1P2d836QUt9au1qye1R/MuQnaLo69oaCSTbLU5PdaWZO5aURe23fyrTriiPyZ8dlcw0Wa962NdEbHk3lAM19J+dopfGtaev8vXN3qcCZjc0GWzoPWmZ9Tpf4+q62/dt91qV3SODvm5e1zjl8n5OE1rR66feccK0YtRpUH9WmKBKRMBFmcCAK015Y5NjvDUL16wSeiiHH1y7lRPl5Pnv4kFNHnjZpbFCN2s+xN5wyKeowGAyV3120Z2achy4z7UJFFcw161oGd6275FEruRJtHrCnHamFaMuFibwEBFwUSAw8OGTZkZQ4EDstHIqoGQryvbLLADPbwo7dNPTJ6zvMQhEF+qB41lu7mXU12bpYUhdiis471FNEQjB7EZadCIskSfomh0xLbnfBXiICLgoEhioSpNbCCn/o4+1ETEVTNMY6AJMC6g25aX4PqQyWo512EQr6Wcv3YgrtH6P2PMYrkpDSZtcs2OlO6OWdCEi4E7z+dbsVwM7BzPsvHRR631o5RX5wt2Wi/WyVheoK3GFNu/RbCwHPNLQXjUAIv+9a7v1rtmx0p1RdyEiUCvNL/rJ3b9QkYRCoQcX7LoKjyIVPRR9bBY7KNA/C0b2Iwe08Rk+1/3o97tnHVeu+9c14LGA9sUVdu+RKGytgbL0BaE3NQBCD+LvHY+kzjU7YmrEU/PgTz5oX+0rlN6VO9Rx2358vnW6vwuXpUk7+0XnMe2bmW+Y/Le46cv1BU1lOb92z2MyEry5PL3kefnhTL/x7pwjv/9npXvd5Ou9pdVDKlBYisyH+9HpPeLrOx1VnR9SZ2b3/kjk+QXXeiddfd2888vB9b360d+pA6/ZkQORBAAio+M+NQBg38CoAYgMGDUAkQGjBiAyYNQARAaMGoDIgFEDEBkwagAiA0YNQGTAqAGIDBg1AFFB9P+3CnCBTv9XAQAAAABJRU5ErkJggg==;" parent="1" vertex="1">
          <mxGeometry x="981" y="120" width="245" height="202" as="geometry" />
        </mxCell>
        <mxCell id="m7wP7DTs_LmqUB2sAlDn-23" value="" style="rounded=0;whiteSpace=wrap;html=1;fillColor=none;strokeWidth=4;" parent="1" vertex="1">
          <mxGeometry x="380" y="90" width="860" height="244" as="geometry" />
        </mxCell>
        <mxCell id="HfD-1GeGWzYrt1UgfEGJ-1" style="edgeStyle=orthogonalEdgeStyle;rounded=0;orthogonalLoop=1;jettySize=auto;html=1;entryX=-0.006;entryY=0.434;entryDx=0;entryDy=0;entryPerimeter=0;strokeWidth=3;" edge="1" parent="1" source="m7wP7DTs_LmqUB2sAlDn-2" target="m7wP7DTs_LmqUB2sAlDn-3">
          <mxGeometry relative="1" as="geometry" />
        </mxCell>
      </root>
    </mxGraphModel>
  </diagram>
  <diagram id="lczTeVjTCBPqHGJqpAws" name="ShowinWorking2">
    <mxGraphModel dx="1052" dy="825" grid="1" gridSize="10" guides="1" tooltips="1" connect="1" arrows="1" fold="1" page="1" pageScale="1" pageWidth="1169" pageHeight="827" math="0" shadow="0">
      <root>
        <mxCell id="0" />
        <mxCell id="1" parent="0" />
        <mxCell id="AO4dmCxWEqPezHxjVxyz-1" style="edgeStyle=orthogonalEdgeStyle;rounded=0;orthogonalLoop=1;jettySize=auto;html=1;entryX=0;entryY=0.5;entryDx=0;entryDy=0;strokeWidth=3;" edge="1" parent="1" source="AO4dmCxWEqPezHxjVxyz-2" target="AO4dmCxWEqPezHxjVxyz-3">
          <mxGeometry relative="1" as="geometry" />
        </mxCell>
        <mxCell id="AO4dmCxWEqPezHxjVxyz-2" value="" style="shape=image;verticalLabelPosition=bottom;labelBackgroundColor=default;verticalAlign=top;aspect=fixed;imageAspect=0;image=data:image/png,iVBORw0KGgoAAAANSUhEUgAAANcAAAB2CAYAAABbPQb+AAAAAXNSR0IArs4c6QAAAARnQU1BAACxjwv8YQUAAAAJcEhZcwAADsMAAA7DAcdvqGQAAA2PSURBVHhe7Z0tbzJNF8fP8+SWGAy5xaUw1KDQVb1kE1STfgFUk1okqaxtguILNKkiqSwKjaopBlWFqcE/zznzsszCvswOTLvQ/y/Z6yo7O2+7c+Ztz9nzn3///fd/BAA4Ov81/wMAjgyEC4BIQLgAiASEC4BIQLgAiASEC4BIQLgAiASEC4BI1Fe4Bk/0+vpqjmd6uDTny7h8oGeJ8/xAvlEUVeOZ65+dgg2epKxPNDC/s9O8pIdnuS59qHTs9U9JCvo+VK0LqAW1FK7Lh2d67bdo8XhN19dyjIlu/BrY5d8O0WJKC+rQ3wotsnK8iyY1Nhui5oU5MaBua0N8JiE7zTmNbqVOj7TgizeLR1XH29HchHMare5WQMHJUkPhGtBNr0Gr6S0l7U0a5P2I/y3jkv52GrT+nNDbkqjjLV2B8dZLWlpBGHSJZjNaU4v+qOihZVnTctmiK++hGtSV+gkXN9I2reh9Yn5X4fIvdRo67vxzTY3OX7/pVGg8+mTBaVGXpUtkK1Xm4DQ51RELaYXrQT05qw0NmYY1Vu+k2vjknVYNvyleSLzLPy31/5yHpVb3ibpk4htCy6KZ0Pu6RzeYG540fsJlF9rJkbForxp2dPQ0bJUMH9xAVw2P6VhoPMP8jaeGbTNsfdAXr6NG8wPTZCYvCxbaCnfrJJ7R76J+JifysIc9Wk+v6d62TR9MvIb5mbBZ0ONtwXotMJ5sutzR2NmIEGQncEij8cIjTX1tZ/m4TUOVpUmz63sWRwm/I1quqdf5Kq4DqCX1mxbORzRbEbX7bg/KDe3J2S20va27Ra1277jxqt1FczwuaONOx0LjVeUoac5pNFtTp6Onn+D0qOWaa3J/TdNVm/rJVIV78JfinnvQbdNm+Za+RqZsm+LpWGi8i+beuJRQlKZMGfV7riH1OIlGb6jq6L4vS+C12rqRnw+oN7BEBiASZ7VbCECdgHABEAkIFwCRgHABEAkIFwCRgHABEIkTEy79jsg1dzo9zqEOhzKgp92X+WdIfYUr1FiyRojxZObL4V/Ab667pZbClWcsCc6FCd3Lcz1zfckaamjIlKFPlKm4K1OqITVnU6J+n9rq3IovFUVXQcfV55mUomxRmE5X1JE0bpo7YaspXZdoFEvnMNwmtkXF/SipQ/X8NHn1k/TuiMYzag6r5Sejz9XXI43pLqnPKnkuO/FMfnyyoO6T9L3Zq1toHepJ/UYuD2PJdv+KvtSoJqbybWO1Kw+gT62FNptXYdSjoVrcFIVx6MMd9db8oFWYHNuHNnjiBpSEcbxWv3S6Mx/dquunK2kfNk8+nIaUXYew/MrqR9Sg3tDmZ/Q2TVhZfqL7OGzOVPjjYkPtK71Ouny44cau07P53XG8srrbcEkrTZU6cJhzz+rKSe4Wbj8BMKe35YYa8h2LwQ33oiuaJSYgc2X6sWl3C8PsoyP374QBddvcQyZCIZrqq0pWxXlk1iE0v6K6G9zPJkzeueW3/vBfHvnJ6GEF421Jm0aTpKTz0X2SnsTb1iGQSnU4Qn7fwD/m/2L2bJ6cITk0LAabL/owf+5RECa96QVPgUQLnyekqsdVNlaXf6jF46g9n8ANLgqH5FdU9yxYSESCyvJLaffPR3Rrf+w9W4Zl9iCq1sGHH2y7fsLl3tRdQsPy+PiiTb+nvktRWQptr6p/absq82dhGCNmLjo7mfcPeWpEdPsmvyN3CHsE5ldSvz24IWvy88sfF/geccMjmcKZkUatpVheD6JqHXz4zra7Q/2mhVypPGPJQuQ7FdwLb+fhHOeqzZ3wS2HYfqPSpvoKZYO1XZ9U5YMTqjSFDM2vqO57sGD0tb3ZofVbf5rWx7383c4mRuW6V6rDaVBbey7ZqeI2YNhwJynzbb7haqdtu5Ooe0xecKsTO7tNqd2ovDCdZqptpOLthyfTxlJ24qp07W5hXh1C8/OvXzq9/HC7W5iVd3pHdEWLRYt6SR2E/Lq7eSmSshbXIf+e1RMYS549+w0TfA8nuVsIwCkA4QIgEpgWAhAJjFwARALCBUAkIFwARAJrrhJS73OS9y6HESNNUD9qPHLJC8UjW6sGGGDma3GHc0iaMEI8HeopXEoIuvR1xAYto8VroLdKAEKooXDxiHX1RY/X96T0Zo9CmbdK0WKwI1rF0TI1GtpRRafnquwp4fbS4csui4rPv0UlzH5fXh1Jmmakt4dTBzva2TTkCFQnBBWooXBN6D6xED4SJQaYeYZ/pYhgpUZD17dxGGFGiCKQRYaGWiCzjB5BPLBbyIQZ/nGDVlrbYyfu4QSVxccYNMfoEcTDT7jEcMydcpyb18KdcmZ+A2KPCxIvQonZxbEIKgtTYmi4Z/T4rTZqvxM/4VIPw05V5HAeTGjYdyIGmDwxzPaCymsVa/hnyum3i+fYfR2N0LIwuyPRMQwNwUGc5rTQ9u6+Gw8eBphFhn/Z6ClbOs00rT+mdLw28x6BmMpGiJWMQcF3UcOXyLI4zzCokzWD3egQ4ZLvG7jnPMg2wJTk8gz/yoz7duNKMY1xoS2jPknTZYf6Hmnml8WKyc79Scoiu4XZhqJFRo8gHtDQACAS2C0EIBIQLgAiAeECIBIQLgAiAeECIBIQLgAiAeGKgryLgub5b6eewmU1MMxxcCPdMQuRo4rBIQwUQQg1FC7u9e86tLRmHNMVtfvHcNsqDgdMmo8Lop44W4DAgHicgIaGVuthyQj/HLOyu5IkHMXh1LkdlSKjVsUns3UCE9Wi7HjaE2IF75EpNa6dsKJ4jooTqB+/d82lNOVbJLq1oV4Sy4wst94j094ci+Id28sl+DlqL1yDJ+75uWd/OXYHPf+ktf0z0EtiWbw9b47GeLE0v2/2cgni4CdcOxsM32UsKRrifWlQFTTfvVFeHA075fQ2D6kST42UhoJ4MlqqUc6EJSOT43XSxnvdqviDGlLbNZc2vRC7QfejMoFkrLl0+mueXr2rNZ18f8KaZKgwx8wj22RDrwWz4+374FJluPqi69vP0vy2OHm8/aXnYZNmTh1AvanltLBUsGzPH/pNQ27oMlqspvfmRLiXRD8jy0ttvCjeHA1+8Y7n5RJ8PzUcuXaM/izujpoIVxVjSTVyuSluDSUFLcy2gfsbKObH2zeIdL05VomX3hHc3UlMpwvqBYwlAYjE792KByAyEC4AIgHhAiASEC4AIgHhAiASEC4AIgHh8kLevR3w0hr8Smr5niv9klWzOsTkhEl/bVfj/wLWvNjOeGmNr9mCPGorXHc0PmqDjSUEEC6QB6aFRk/RtYsSgbEa/CLoiRa6o9dnz+d7egS/HQiXuDmarlhA7vSnBAZP2szFaJ/nOQcvM6QEoLbCFWM0SKXJR5Ls5J6Fh6h386C010VbHiICDsVvzWW10M1P0eRObKNCw7wxmuBi3n7AqFC+NirOR22yZNhcYc0F8jgJrfi8hl2FMiHQ4VNadvrUWe5fB+ECVan/motHPzEmXLmu+M0mxNHeO5l11mw0UY66ya6/PCgypAS/mxqOXLsGgWnDRoWdbvoaSzIywmS+5/q8UYaU7ns0fe2Grq/H+8aLQpEBIz53BgwnMS0E4BTBVjwAkYBwARAJCBcAkYBwARAJCBcAkYBwARAJCNe3I+/FDnHoB8PNU8FLuOSlqqvwKoev6xqJCzc3Z4jVkjEHLG328R65UmYVfECX7qeY0L08gxieX7zh0TeK98/zwktDI185VaY4d0TjGTWHaQ+KH6Louqc3xCTqQflqQza/Md0laZSa+avvwRd5j9z5Bn2iOqXL4XokcZV0g8pi2flGvf6sgDisLPI6mVdOUy57w7LUrDLzUzFz77XG5BmsuqXjcyUO+hTDuXGENVeDekPrQfGRFps2XXEXVmZMWOYlUWyvVAPncDFUbF+VrDEm79xE29R1pieDLje01Ts3Wmlc2hVPkh/1aOg5l6lcFkE19BYtbO/Oh9s5bb1Obu+ZFoL8cuYZbioK8oNHyp/BW7hyDQ2ZrQdFX6+MHl4Spcc24fO3JW0aTSpOdUIv0vAT6ZI8NrQQl5SDG+61RevdNm7Ob7ygTbtrfpdQuSwsJOIyaDFOKxw7ZN6zgnIWdwNF+fl4pDRTzeSaakTz/nniBK+5Ap+DxsNLoviyStqJmOJ7GFmqhm8b4qDL05zZtrFtvujD/FmV6mW5oCZPwRIfXFUIKmdBfpE9UspUNZr3zxPnCNPCUGSdsRVWdRz6gIyDOBm8ZEqYsgHbHW0umo6F9LFxnNZVJaicZflFuNeMXgOKk8Lyju83El24Mo0Jo3lJ1FOe9tUzXbWcaYpZj+l1jWCnUS/mN1FL3PoLvHbJ3IiphJ7qtfvVfEAXlbO48Rbk53WvzbuzCs9jK1g53j9B+JrLd0E8H431otzGVQ+QheBWL6xD0ixEGmiDhcOdyqk1xZTWSR30Al8v+PW6hmzY1RdNszYMKiKbD4+LVmo6Vl6/onLKZodORwl/29w7IxD5+cW41wO6UR2QbGZt08SL7TRnaCwpvbDsxKFHBT/LD6654qB2rtyNDAB+iLMZueRlr9oEc166AvCT4BsaAETi7KaFANQFCBcAkYBwARAJCBcAkYBwARAJCBcAkYBwARAJCBcAkYBwARAJCBcAkYBwARAFov8Dczmx5zqe4WYAAAAASUVORK5CYII=;" vertex="1" parent="1">
          <mxGeometry x="400" y="405" width="215" height="118" as="geometry" />
        </mxCell>
        <mxCell id="AO4dmCxWEqPezHxjVxyz-3" value="" style="shape=image;verticalLabelPosition=bottom;labelBackgroundColor=default;verticalAlign=top;aspect=fixed;imageAspect=0;image=data:image/png,iVBORw0KGgoAAAANSUhEUgAAAN4AAACJCAYAAABD7Ib4AAAAAXNSR0IArs4c6QAAAARnQU1BAACxjwv8YQUAAAAJcEhZcwAADsMAAA7DAcdvqGQAABHnSURBVHhe7Z0tb/M8F8fP8+iGJSXVDYZKdpGh4qIOXlLRpH2BokqjhVPh6KShfYFJQ5UGV1RcNLKRoqGRkfLn8fFL4qS24zhvbnt+UrQtnmM78bGPHf/j//z777//A4IgWuW/8idBEC1ChkcQHUCGRxAdQIZHEB1AhkcQHUCGdxSMYfnyBo8z+Sdx9MRpeLNHeHt7k8cLLMfyfBHjJbxgnJclq6olKBsvkz9xvHhnEqOX+3/i9IjO8MbLF3ibDmD78Bf+/sXjCeDGzyDG15cA2xVs4RKuS9TrsHg7WPH8seNhCzBakDER3kT2An0Gj29TYDUa7p7lKW/QHVtAf/0XXi9eYA5PcHu/kWEuAuJhj8ezeQdJNjPnxDVHPRm238LD7T2wk7BITmrsVvCXF9gcb5PkcQUwncKQB6Lhq/Rt8ZBcmCtekg+iaeLq8WZXrFLt4CPk2Y+v4bIn4m6+f6B3ec2qlQeh8fJ8/sIeBnDBIo+XNwBPqsd+YD3pCOasN9zc3/Jzqx3axoMMZ4es7LZ4iuF0Ar/SE1jthjCVgz5XvPFyDqMfZlAqLa2xmD0yo0vCWLzBlHrtljiZyRV0F3u7D1Gpnj9g1/NzG0PjHbD5hh/16/0dpJ3mBt6/9tDr/5F/2ymKt1vdJuHPH8x6h1fMR/BIT/5flhlcDVnvl/RwG7hf78IbHqIU/8ifdnDiYTGC1EHSXJXQsNoZw/VlD3ZrdfVn+NhNYYIWtElqpIHQeAbGF6y/A/jlv+fLzmB2UkiZeNjDTvvid0c87GX/PL7B9I0d7G/sabkrzfPLek15PoG5qYWEPndX2JkR1xhPPpifsmM8U8VDMmMdA6HxDGM8nBRajH6Yy/bBx6kDVcFVWH+duJQ4qzn5TcMFYnxrjvcpx3jafcE8TH7h7+13YXopWhrv16zsfVifacXvmrhczc09MG+HjWUeNddoDMtHbVYTjQWn8PWp/z996KGxJOMYdjxsYa+7jaHxfGBGgJMmu9WdPAHw8y2NiqU7T2c2OJ+/zBW0uHSueCnsnkyGsP96l3/7xvsElrRg8w5f+3ScSLRLdGO85zs5cYBGwo85wKuj92HMrkQlzPwPr1g9uHRYUGg8gZZH+fpDdDDP8Lrds8ZDhrFe5Yv9rbO5f+ITIAsVn1f+4nhJ2NsCLr9UD+eKh7OWKo6Ih5MpIh4b092KCZU0nN4vtgXp8QiiA05mVpMgjgkyPILoADI8gugAMjyC6AAyPILoADI8guiAIzI88U7quN/3nkIZqoKrZ97KayZPjDgND5dDJS91SwhhI+Kcxa4k9C0mOsOzCWGJU+EZ7vC5utbCngFHJIRFN80lBhVxxXlGZqGzK0xcN13eqF8zF+YhFBWLpQ1rJXlctdjZU9DqLUy1lQ+vNwd4WkN/US49tZD7CeZJeXbJc8nFk+mxk06hb+beHJQttAzHSVw9nocQNhWDPsB2P4QJd2nw4YhV96KXFGLQBR9MucJYaM1C0SKxK2IuQ1h6ReUD6MFoYRbQFqXXGy2EyoGFP+B60IkYl4UKfVU4XitLmTKwMO2eHStHN6uZikE1wefshrW+O1hLWQxfAPy0hf3wyhmmHmvbQlFjGULTc5VdciCgHVyw3zzSw15HGc37F+x7fcCchgp9rZQqQw3pRUCx4Sk5TXJokp3QsCbY/8Kn/PUARxi2wroaImnxNaFoUoZp4gjVT5X0XGU3wQzIJ72McmNzD7fKG8g9W6N7WZayZfAh4rpbrEDHG57c/RyhYTa4qnoEV1hK1RD7olpj8ZfQ2slfnWEMlCKJ5HCcgV8LA7jlUre2xxKB6RWU7wBWyQX29Oz9CbtHixHAlrmFsocSwlv+azhly+BDm3W3JHG5mqzANiGsE/xWCmu9U7+fxUGh6PbVGXZY4eoTirrErkZC03OV/QBmNKxX4wLaiuULFfoaKVWG0yBKPR7OqKVez541rujfs4fBZwTTGc/sJw5ys2KZWTNbmLhmpt5k4h2GJ98sKSQXl1/38BMO2TKEpudfvuz17OHmz1MIsjO3O9huBzDKfGrCXnY9LU6SV3cZ7PfsOCEh7ElzWGmJODi6WU2COAXI8AiiA8jVJIgOoB6PIDqADI8gOoAMjyA6gAyPIDog0skV+TI1I9+pCN/vQL2eVS/l5Z8N4HoBHUJ2UYHA92V+3XkhqhNfj8fV51fweyAdCQdXOrwF7jIbE2hoidSGHWRIx0t8QtiXC3hVosrLrxp6PNF7gmUHItUbeAk+k2VMSC7MUwzqvqYde6+F1zMLRT8L8mItOxzuhsQbxPw5IpjIerxnuKvLtVR4iGttgk+XUDRUDNrMLqxmoaiPKNdUdrVomatEJLjBC6gNPInK0OQKYhB8blhP6RKKholBq4lr0UhSjVj2a2XBQlFD2WfMvPgORInlYb7ZuPiVzK4uig0vYjFhXZgEn4VC0Vz5jC5dnori2vwYT+u4grGJXbkRKmU+eg27daOTUedGseHxh5E+bP2bJMFhbYLi2pzb5A+OlfQysIO7wmzcqMSg8vzhd0Rs2K4ZGVKvh/cN3cydy1cnSnN8rqbqaXw/iMoaAJu41hnfQyhaWgxaUXwaSmlhKke4wcPJC0wGWyAvs14iMzycodNct57cNbXiV4dDdpnlFc+6Y2rorq+uaxaTH+P5xjPnxQOcZOmx55DfNZeoDKkTCAf4KgZnS5tdbHCO0KwmYWX2OKVJlYagHo84IFmeVueSPSIDGR5BdAC5mgTRAWR4BNEBZHgE0QFkeDlwYiH7fgyn1N/OfgdTol7iM7zcGsg6FnmgManrqaO6IsBkpMVUyUtIekScRGZ4Y1jOL+FLCVZXOxhO69mKOVxEWv8OpiRoJSJ/neAWsfqCPYX90wc5YSoDDQP/N7NHgCZYze4doOEharXnhQSt58TZj/GywlQhGlXYdjD1EZiGQYLWcyFqw+NLlvb1rIw3ikjZeHKSEaa2AwlaiWLDy012tCWERXduikZR09gqP65q2dYyNJEXErQeF8WG14EQVoyhUGdK45DKkKA1SqJzNVOjs0hRVE9ax3u1zTf8aGMg0cuK330IE5iGQ4LW0yEyw5vBDZ+Vw0kGzU2twcjMItJnuOOvLMQ5nJxIJ1JyotyhFK9qA7JQgSkJWglSJ5wFJGiNjahnNYl6IEFrfFCPd8Lgi3UStMYJGR5BdAC5mgTRAWR4BNEBZHgE0QE0xnOQUSF4bqdFED5EZ3jJTJwk3asukMxOsAIl+/GFGyCu/C+REbcUqTz5+4L4lqPuvBDVic7VxM+tJ+s7H7YwqEUIq20Uwq4Jo8VRKrnzi6vJkI6XuMd4fC1lzeDi7dUOeqMbqZZIl4aVWoZliYe9I/6NvVNmaVhy3dD0bOD1sHGS34bhh1CCFOUFe0JsgNT/4cGD+HbYOTWJ6RwRTNyGhzKW/Re8192w8627BnDBOr3QHVpt8WhHWMKHCA1P6xFYU71bN7DiQvak95vQHVrbjifIL67WO0sS0B4XxYbXuhAWt7KSLTNrvX8nDXxZi+/Mqn4G7NDadjxJfoyndVzBkIC2G4oNrwMhbErJ1tuT8fUlc87U6FGbeFGH17rGtuO1DAloGyXuMR5rb1Gfl3noVYWws0f+bm63uksqV+kdWj3i0Y6whIvI3uPh+C77qb2D93hoeIsR9HxX3B+8x2NjlYwu7TBN8X4MDs5zkhfptnjqwrlw73hm7O/xRD776/Q+Hb53NOel+P2e+LziwCN/RDlo5QrhgAS0TRG5q0l0CQlom4N6POKAxK0lAW1jkOERRAeQq0kQHUCGRxAdQIZHEB1AhseRK/tr2vVVX+1fXX0QK/Xes3MjXsOrukJFweUs0gjkUfvazxy27b2aAmchQ8uopEFEu0RqeGNYzkfws9M2q6uEtj7SKIStf9fXtskvoG5+pcnx37MuidLwxss5jGALrx/yRJ3khLButxCXWuk9iVJY4Hmz+LSY3DVVj96I+NSez2CRLKPUPcuE2+7n+RGf4TEXk3V2sH1qsCXVhLAut5A3ANpusVmFhS4+RbGp3+Ln8fIG4Eld74FvQjLH3rcx8Wm9IllsJFz3zCX0dd/P8yI6w5vdcKtrdplSmU9KKE2agVR8inbDavDgQvReDjb3d1rZdNlTNfFpWyJZd0wPoa/jfp4TxYbnErSGhtlgrtV0sIWnpscnSghbALbsvCeTZSichCismIzcfUk+H8ioIj7Nj/G0jisYm0jWSoHQt/T9PGGKDa9FISx3rXra/m9iAML/9vDivFFC2G+PSp1+9WwFPweTMjn2v/ApfzXDxlpi183kvmTctZMQn7qFvqXu5wkTlauZ+bQfHmIAAg/s96QFVz1GDULYctX6E36tbweYQbFGItNDOPhRFs/KMteFedI1a1N8WuuutqWEvq77efrEvUgaZ/Umv9kV8mh4tQlhcZYtK0rlcKHo52GYl5jVdc1nln3t69Ssd9huBzDKiFZxBrKc+DRRE2g0J5J1l89+bwzC4iTO+UHqhCBE5dIrdH2g4ZH49NSJ73XCmUPi0/OADC8S1LIvnNVVU/jE6UKuJkF0APV4BNEBZHgE0QFkeATRAWR4RCBS8UBC2CCiM7yM5EQe1ZaL4Tu37PXKqMJjEorWmhe5Aki/nphZ7UCqE1NeWiLKHq+JBb/4KXhxvRXshnXsSXfk/OlDb78HSJQKM7ga7MF/FVeNQtjKeTk+ztDVzK8RzPWIsjdUPa9Yp50Xioo4esfJ/1+eUD2T3nuLIIxXXkDrzguiX48dvu7fzxd8DVI1BKzX8CN1iqqMpmtmvBL9JgSWj1MmL0marvREHD17+jPqmvMzvPE1XPbShcqhO7sWYRKRyhCjMNWFOy9YwcTaTnFeiGsXXhXsG96/BlINAZDdlMki2GW4hLAh5RPY8+LeRTc0vW6J0vDMrXo1hlN5vcUlfLGHJOzHQ7gZikFEqggWppqY3cCot4N1ssaMleFpm+r6LIwvhCIR8za4eoQryCrd7YLdYsqWz5UX1669ilrvZ0sUG56S4SSH5jqEhjlQraneutVhfGKMhy1iDy6vpVlV3KHVhUlE2hiFOkAHKOUZsDLzLkZzw3PPTxfsNoYpLw0+oy4pNrwWhbCHiBasPmRrKT90JHALN4+CvPIdJyvkry72v2iu7J7c6hNYPd7LOAW7DWDLi8D8jI6ZuMd4rNVFoWitO8I+v6bjAA/hpksoOhAjfxyEtNIjGPMiP5KUjmvYmG8yZJ7ua0BDl8Uu2G2RUuLaQ9p+Rr5EZni52avMeKwuVK83h+UYW1jpzqo02aG/atjcP4nJChXOKwCLx8ZRbFQvzk1+YdVwj4CY84LT+uIzCiL/YiKiSET7p2+vhI8z+eGlZFzch6+kfOkz4hV5KO9dheGAOy/Fz8hMN8/IF1InEEQHxO1qEsSJQoZHEB1AhkcQHUBjPKIUOFFhA6f5CT/I8IhSoOGZDMx2njBDriZBdAAZXqscrpgvh1yFT+LTo6fQ8IQgMXsUv7wU1CrcJIgTwqvHywtTm99tlDBDu7CeCoWTK9hr2b+hPwd4WkN/MQWxXhwXs97B51LfH0DD9n197Rv6Kr0nmCfXQGWBc9kY3x8BeNrJv2XOoYum8shI9l0Q+bDtLRCUF0VuzwZ9/4D+egUwzd4zWXpLPmW+1A0z7TlgTI/HtN5rgUzTcx8D2ySK7TxhpuIYL2y3UbewUejxTDuRWnHupooVL1QoGpAXhBvBALb8vohDb7iGU5Nw051Pp/jUkV7RvSa6wcvwMsJUduh1trwI0UN8ahCRuq/q2E3VIRT1onRemAFxdYB9V1vjPQsUtLrT8xH6Svc1+R+iDYLGeJWekYewsfROpAxuFLbdVCsIRcvn5Q/gYvtEUlOGoHw60jtREekpUNHVDMUsbAyoqilSt2XcTTVQKBpGhQ0Xg/JZlF4D95qoTKOGZxRuVhQ22hFu1MFuqg6hqKJesaRwH4dTz69rKYIFrY70vO61fDdY+/MgXASN8XwH51YRaZCw0QOsvD1mOJktkV1CUTGOqlssiRMhD9tBxsUrLp8rnzjxIq7DG4ac+NSeXoP3mqjEia3VxNYbZwzV5AVRN2i46K7msZ0nzHQ0xmsG2k2VOA4A/g8RA+iYDGr68AAAAABJRU5ErkJggg==;" vertex="1" parent="1">
          <mxGeometry x="679.5" y="760" width="222" height="137" as="geometry" />
        </mxCell>
        <mxCell id="AO4dmCxWEqPezHxjVxyz-4" value="" style="shape=image;verticalLabelPosition=bottom;labelBackgroundColor=default;verticalAlign=top;aspect=fixed;imageAspect=0;image=data:image/png,iVBORw0KGgoAAAANSUhEUgAAAUIAAAEnCAYAAADclEp1AAAAAXNSR0IArs4c6QAAAARnQU1BAACxjwv8YQUAAAAJcEhZcwAADsMAAA7DAcdvqGQAACMlSURBVHhe7Z2tb+u+28bv34NLSqoDhkp2yFBxUQ+cVHSk/QNFk0YLp8LSSkP7ByYNVRpcUXHRyEaKDhopKf8+vv2SOGniOC9t0/n6SNG2eE5sJ7l6246v/u/Xr1//EQAABMz/6Z8AABAsEEIAQPBACAEAwQMhBAAED4QQABA8EMKLYkizlzdaTPSfAIBGaLcQThb09vamtxeaDfX+IoYzeuE8LzMhHSUomy9RPrW9eBeSs5f7fwDAcWitEA5nL/Q27tFmfku3t7w9Ef31E6jhn2uizZI2dE1/SuhMtXxbWsryiW2+IRpMIW4AXBgtfaF6Qou3MQmFoYdnvcsb7j5Oqbu6pderF7qnJ7p7XOs0FxXycUQoi/lAUTET+9QxBx2dtt/Q/O6RxE6aRjsttku6lRXOzreOyrgkGo+pLxNZiM358/IxqTRXvqgcAIRBOyPCyY14yLf0UeVZHP6h647Ku/73TZ3rP+Ix96BqvjSfO9pTj65E5uHsL9GTiWjnItIc0L2IFtePd3LfcstaNdfpYtPik5fP0B+PaKcj5eW2T2M9aOjKN5zd0+BbCJw5lyXek4UQwShN5OuNEdWCoPhxkyXcve1sP9RD/vxB245fN7dqvgPW/+jb/Pr4QHFQuab3rz11ur/13/kU5dsu76L05w+hpv0bEUN7nE//X5IJ3fRFdBhFgGt6XG2rfxAAcIH4C6GZSIi2RfxQVU1rnCH9ue7QNgoln+lj26HrQkWrmi+D4ZWIBzWpumd2h7Mok09GoBpHPo5CZfSo06KIT5Y33i+3sep0F1L1urvSADgD7Rwj5AdlOqDvsmOEOt+BbCTGyjKomi9jjJAneaaDb9HF/JDjnL3NPBprlGndVdQF5lnj0S5OV6jx0ex8n3qM0GoXLsNoR7d3/wrPF2Od4/2PqHuXVlYdAAiNdnaN148kemfUH9uRwpBmC2vW2EQV9qsuv7vUYfGKxsHENt/Q3u7mVs3ngxAljsK2ywe9g+j7nxY5cd77VGT3uRNd15wuqCtfjGiTUZ/2X+/6b998nyROrVi/09c+HmcEIERaO0b4/KAnAqLu0z3RqyM6E0xulCgk/kc+6O5ubtV8CquM+nUfFYA90+tmL8Rcp4mo60v8bbN+fJITGlOTX4pRcb4o7W1K118mAnTl41lhk0fl48kRlW9Nj3dqgiROx/uNICzgRwgACJ4fN2sMAABlgRACAIIHQggACB4IIQAgeCCEAIDggRACAILnAoVQvRN32e///oQ61IVXt7yV94wE4Ai0Wwh5+Vj0km8JY9YWEbL5KoxnwaXQWiHMM2YFP4VneuDr6lrLDcCJuEBjVu5WusxJVd7IPyVhnOBKU8eNl+fWMy5V5gsZa31lXmOe4Gmw6m2Umlc/Pt490dOKutNy5zPGEE90H9VnG12XVD59PrHTUffnZNsc1K1qHQCoTjsjQg9j1ticdE6bfZ9GsgvGD4tyVVFRpDInncrBOFeaSG3YuLTIfJXJrkO18xXVj6hDg2m2oWvR+TqDqXKxEelzXs88UuN6VY1nTTofK0mZOog0q80AqMPFzhrH5qSWAenkr4hOtrTSNlTSUOBpQ/v+jTPNPGanNi7NrEPV87nqrjkwdO1did88zsdRmRGx9y/ad7rEJa1qPJtLqTo0cD4ANP5CaOyroq2lJpz7HX3qXw9wpB3FuLQKdc7nqnsWQtB8zpdw5lk/0p2JllPXNrM7XJaydfDhUu5dcDb8hVA+ALqLIzdrbKZqWh7SdblPN1XuOh2tRLDXoP7VmSZg6y9VxiV9J76Njsei7DqILRpbPAYVz1dQvwOE6CiqnG9Ci+mAaBN3fQ+7uhUoWwcfTnnvgouknV1jcQPmGbM64e8aEQIajxuJPGxcunl1ph3e3M0Zl7rMVzOpej5X3Q8QIiaiPmnoWrN+VY1nMylVBwCao9V+hDxjGffS9iL44PEh8XDIGdd4RjlpSZ+adUzMSualqWMmnuNEvsN0ngRIWuznkcorj3touZ+sQ9Xz+dcvebz89OyvE1AkZ8a3tNn0aJD4aoD8utvnkkRlddchv80AqA6MWYPgUEQAADEXO2sMAABNASEEAAQPusYAgOBBRAgACB4IIQAgeCCEAIDggRACAIKn5ZMl+uXahF1WTdjsNXpL27ykrf88Aq4XkquQfMlc4ftyd9NlAeCn0N6IULpT39CuifWrGl6J8JZh9uq9BKwlsPDF619vIWwA1KS9xqwvV/QqokDiZVTXXw1EhCq6pEyz1zha8jIgjZZ9Mak0T3NS9zHzyY/q+HjZxqWfBWXJrTtx9MxNZpkNyIg6tQ+AC6elEeEzPTTVFTZ4mL3mGZC6jEurmpNWM18tItu41MckNqvuxgTBdgGa3AiJ3X5ABMGPApMlNhkGpGsRSbqMS6uZk9Yze2XRij3ykt+GV9m4NKPuEyF3ryyKkRJyufe0eYUMgp+FvxAGYG6ZZUBaaFyaql9mFzRNTbPX9BihFdhVJs98VYqice7mqHq7OurkEgDnwF8IqxpYutJOSR2zVznWZtdBbLLrPqlhTlrFDPUMaL9CbjfuFm9dYwsAXCiX2zU2kZjvF4QLQc4ze3Xm9zAuLW1OWtMMtSqljVIlqtveH73QqLch9IrBT6SlQsgzoFZXszOgaRnRy4Gt+O3vJXl7uyd6LYrChBDcqcmMqBsrNjWxocfQxnr/tEtfqYhw/fikvonN5JXi5zpmMekxQt982WXxgCdNOuI62N1nAH4QcJ8BHvCrRzwbfdyXzwE4F5g1BoVMFmNMkoAfDSJCkEu0nK/JJY4AtBAIIQAgeNA1BgAED4QQABA8EEIAQPBACHPgiYLk+3n8Cslb7XcZAQDto71CmFrD28QiDBY3czyz1Xd8yRLNYuqUpcr5AAD5tFQIhzS7v6YvY6C63FJ//EJNPPvVTU2f6aHh9cAwWAWgHVzI6zNuU1VfOJLKt6pPGaUKWKj4f9nZOnKVsQxUE/ttPExW88sCg1UATg3GCDVJo1RlYmowxqZpZxkfw9NqwGAVgFNyEUIol3jtm3E+yTQ1Hc5olDBKPQ0wWAWgHfgLYWry4lTGrNz9HLNINTQ2lx6XO7H2JThGWWCwCkB5/IXwDMasagyOfU8xjlUbGKwCkEtru8axCOZYP5lIs4n3+tb/6NsaQ1NRqPrdh2qGp9WBwSoAzdJSIZzQXznryZMGVre6AdHLNjV9pgf5io7ax5MN8cRIyiS2r81UrQG9qoanMFgFoB3AfSYoYLAKQBYXMWsMmgEGqwBkg4gwAPhFaxisApAPhBAAEDzoGgMAggdCCAAIHgghACB4MEboQcJlxsNZBgBwWbRWCKOZTo20k6qjP9J2KrlcxNhs+SIFkZ1dShTEbf1VnnS7ML71aLosAPwUWts1fn6w1ifPN9RrxJiVff3iY9JgepFOz2mzBggbAPW4jDFCuRa4YdgMYrmlzuCvdsOJl9KVWraWk4+jR/6bo7fEUrrouFXPlwcfjz8s9HeryE05/RSVhSNF/kAw/8ebTOIoOu0WlLUPgAvnMoSQbaP2X/TedODzuaM99ehKBIVJY9Y5bXpjr2gxL1+RiWrV87mBoSsAVWixEFoRkwhltqsjrIjQkebjmo1KbWNW5dRS7PBy6nyKtFmDHUzC0BWA8vgL4cmNWYU43OnIRUQ3u9ERvrlteCXiQfOzT2O7nOkZiSxOnU+THiO0ArvKwNAVhIy/EJ7BmDWmZHTjyfDPtehMmtFHayLFbF7rck+d78TA0BUEwGWMEYp4hP0JEw9hXWPWyUK+G7hdPkQP+7jshIVHvkwT1arnqwkMXQHIpqXvEfL4YPKrNQ/eI2QhnA6o4+uocvAe4T7lfn14TvV+Hh3sl0QvVuflMwdOpXvnyyb/PUJVzu4qbqfD9x6zy1L8fqH6OtWeR/kAuESwsgR4AENX8LO5kK4xOCcwdAU/HUSEIJeoGw5DV/DDgRACAIIHXWMAQPBACAEAwQMhBAAED4QwgXZuaeCL5BnbzaW+u0xbabbNADgH7RfCuitIDNI+SouS3hpfu5zCuL6wm8sp4FneqnU0VlwAhEjLhXBIs/sBfW+3+u+6WOt7M41Zn+mhrWt+PUkbMhx/JcjltxkArRbC4eyeBrSh1w+9o0lSxqzubiwvTbMjLeOgw/uzzVCLSR3TRLxHMUPNL2dl01ZBqTZLpOe1JwDnob1CKLrEIhikzdMRIw3LmNXVjZWCHJmo8mY76NhmqGx+6memMJz9JXoyx5sLuR/QPUenRzNDbda0lUXb1WYu41l3ewJwelorhJO/UgWPu6yrzFcAGE++DGIzVNYxoSi9KxXdOVg/Plh1s23G6pmhnsq01Z3Tw3jW0Z4AnBp/IXQZrFZNy0N0Bce9DT0de3zLGLMWwJGPjPR0HQonFQqFQpBql+jrQgV1zFDTY4RWYFeZPNPWXAqMZ0u3JwBHxl8IT2jMKruCnQFN7YdI/+3R6/TGGLP+8xCZ+Fv1lvR9MMmSYr+jT/1rNhNaTDnijUUr0b38EWaobuPZUu0JwJFpZdc48VWevKkBLJqL36MIx0RUDRizlpOZT9rlvg0jBE6IdiKCcvBtFFjU5d42JtRdyVOaoVYzbc2hlPGsqz0BOA2XYbrAs6ajXdIBhYWwMWNWnsVMmqRKpHHp52Gal7mq65jPovgvVnd4S5tNjwYJE1We4S1nhhq5xVgcz7TVXb/8tskwuo3yAHAe4D5TC/Ww2wLTHCyEMEMF4BS09/WZwIEZKgCnA0LYMswyOZ41N6+sAACOC7rGAIDgQUQIAAgeCCEAIHgghACA4IEQgppoRxsYs4ILprVCmLB40lu95XX8zl/yeGVco9tkXNpoWfQKHft4aub6DNZYbSoLCIpWR4THMBDYLs3xlrTtx9ZQwfK7S539nihyopnQTW9P/qveGjRmrV0WAKoRcNc4vcY1FTHqaNFEpsr3IW1cqvLYgaX8f73DRG52dKuSOF95Q1d3WRj7eGLz7a5+f9FXL3a7odWKvrVPo6lj1jETUbvdCBXrJylTluicrvOpPHbx7GsEABOuEA7/0HUnNj7IMxL1MS51kWVqqlMyjVJduMvCD7xam6z2K7PXqdcD/4/ev3ra7YbINrvJNZAVuIxZq9RPkV8Wl9lr9fMB0HIhzI566tEf6+NNr+lLPDRKzzyMRKuSYWpqqGyUmsXkLw06W1pFa/JEHZ42sa9hDsMr5cjIZevdLOiGkk7Y+QayxZStn6ssj+v8a2RotD1BUPgLobG9ijarq1M1zYGJNuxP/ybEUI0RcsTQoes/WuYKjETrkGVqejQKfRAdsHVWT9RZhmDWsEHq+tkGskcjqyxHvEYA+AvhCY1ZD1Gf8M2hown9xU0Kt5HoRZB2xubJB/2ri/2O5VO0yZ09IdWRUZjTQPYI5JVFkX2NAKjLZYwRiqiEjUsTTs0mUqn6/trzazyO5GEk6jIu7amRfB7EOknElFkW/aVP8bjYkGajvuiZv1b44EmSbyB7QkqZvR5y6msELouWCmFqdjAxntcUJiq8p9mQIxDd/TbnFJv9as368UlNPph0+UCKfE/q+5HlvtGOlkeOmJjssvBrLMr2XpVfTSwUmbr+7uaLwmKiv0gqGlft0ldUv/gaSWHp67arMXzhLkvxNcrmPNcIXBZwnwEABM9ldI0BAOCIQAgBAMEDIQQABA+EEAAQPBBCAEDwQAgBAMEDITwLh44o5dAuKzBDBaARvIVQGWQmt+KXWRWNGomC1pC+J2q8Sw3AWSkVEaaNUotWLYBj0aAZag2eH+J74Xa+od6YPQF1IgAXhPfKEv70H+3mGeLH3bx7oqcVdadjUn4gvDj+gT5nL9nrOrdLy0NvStG/RPvj8z3RfXQMdo5xLrObLOhtTPLc0b8l9nGX0pRRwBZZUkxUObqr+Phs3il9BMWOSmUxyPPHLin8YcI+Aep8S6Jxss107XPKqctlGsxqr4jM88mcuW2t0OfMOqYXnJ/9AI0VFgCXQ0NjhNmmmEWmpm6jTeVHmDY1dQYc2niATT0NkxshClv2tWMhqGpcWqEsjBSlHm1ku6jN/iDpj7OMRN3ldJqhOs5X1Na1mdxQf/9F7xBBcIGUEsKEUWpqTKi8KaaHGWqGqan7qNokIFJCPseeNq/iGA7jUi9Kl0UImnR/ecqNkDLbrKLBqvt8Psazursd/Y8PLNr6fhBR6HZ1YbZlAGhqjRGWembSeBhtZpmaFp1SipQRDY5StqtYGGoYl5Yvy29iM5XIwqoMlcrpON/RTE2FoN6Z+2FOuxEmxcBl0lDXuCrZRpsVpCNG+9ap77wQUYrtYVjRuLQa6S+HKkGlchad7whtnQD2+OByOYkQZhqJ1jTazEd1+/qjFxr1NsS9YonDuNTQrHmnEob+2PPb2wyVDVYd5/Nqa/1uYuXrMaG/os0SHzwAXAi1xgh9u0G5pqaVjDY9YDHpCCGzu7NyDCzPuFSNwzVt3skTG/NNL9ElLa6fq5zxmJwU6pQZav75jtHW1vig3OTUfMPmuQCchh9qzIpXOQAA/px5jPA4TBb8Ppw1SQIAAA5+VETILz7LyVDrBWQAACgC31kCAAieH9k1BgCAMkAIAQDBAyEEAAQPhBAAEDwQQgBA8EAIAQDBAyEEAAQPhBAAEDwQQgBA8EAIAQDBAyEEAAQPhBAAEDwQQgBA8EAIAQDBAyEEAAQPhBAAEDwQQgBA8EAIAQDBAyEEAAQPhBAAEDwQQgBA8EAIAQDBAyEEAAQPhBAAEDwQQgBA8EAIAQDBAyEEAAQPhBAAEDwQQgBA8EAIAQDBAyEEAAQPhBAAEDwQQgBA8EAIAQDBAyEEAAQPhBAAEDwQQgBA8EAIJUOavbzRYqL/DJIJLd7e6O1lJloDgLBopxBOFvTGD6W1vcz8H8/Jotz/tw0uf9X6X3rdATgHLY4It7S8vaVb3uYbosE0qAd8v5mruuvt7nGtU47FMz3wue4e6dhnAqBt/O/Xr1//6d/bA0eEYxJC+CAeT01iH3dlpzTo6LT9hubiARY7aRrttNgu6faBj5Sdb633d1dLovGY+jKRhdicPy8fk0pz5YvK4YajutFuniF+fLx7oqcVdafJcn4W1N0c84nuo//bLm+JizO08x6U0VUHV90BuBwuZ4zwc0d76tGVCAqHs79CDEy0NKcNDeheRIvrxzu5b7lNRVT6wc3LZ+iPR7Sbq/Tltk9jPWjoyjec3dPgW4iDOZclBJOFEIkoTeTrjRuIajsiODblFMfc92nkUXemI6LqaXcl9883e+qP1Higycv70rjq4Ko7AJfE5Qjh+h99m18fHygOltb0/rWnTve3/jufonzb5V2U/vwhFKV/QyyFhefT/5dkQjd9ESFFQrSmx9WWOtd/pPgUwaJljxHaEzlxOf3rLuFIVpdn/f5F+06X3Dk96pBZdwAuC38hHM7oxXow394W8QNQNa0MwysRD2pSx8zsEmZRJp+MQDWOfBxNyehRp0URnyxvvF9uY9WZ9SE9RmgFdpXZf70LKdOsH+muKIIrqENu3Yuoer+40gCowcWMEapxrG8hCh+0EIk9IRRmDE2mcZdPq0X2GBu/HpKX71OOdXVXluBwGUY7ur37V3i+GOsc73/oZdqlVYXuonuMMFlOv7q7jhlzUC8WHu86HLYvAJfCZXSNhShxFLZdPugdRN//9MMmHtb7VGT3uRPdxZwuqCtfjBCcUV9GUAa/fJ8kTq1Yv9PXPh5nPBWuupemVB2sugNwYbQ4IrS7kXvazOPxOxm5RGK0pc2mR4NEhJY905mfT0WEtr5x1zQRAXrmc8+qJo+bB0dv6V60yscT4+6IMK/uRVFmog5MVI+8Oqiy5NcdgMuhnUIIAAAn5HJmjQEA4EhACAEAwQMhBAAED4QQABA8EEIAQPBACAEAwXP012cS7+DhPTMAQAs5ekTocjapA78g3Kg/YWoda6MLQsyx4f4MQCtB11gypNn9NX1pC67b5Zb64xdqRmf52AP63m713wCAtuHZNeZlVtmGoKqjqxbcR6vCEsalisOlYExq+ZZzeZqfAelBPqssZplZljlpElUfcUIrTdexZPde1vv6i+arLk1Hu4N2AQCcnxIRoW0IahuXsvAo1xFlGaWMS6cefcsqpp9FBqRF5qt55qRHQRo0EG2eIH4AtJlSXeMD49LelVCzvyL62tIqWsy/psenDe0LDTuPY/pZaKLqYU46WYjIT/zfayLw09/pUSIanPyVKmiVBwDQRuqNEQoRkex39Kl+8+dEpp/pbnSROSl3Zccs0HW7sJMFjXsbeoIKAtB66gmhEEBJOqr63RUdaR943M90Y/VmCdDzg9m/pG+vb7Gb0GLKUVjcZS4zW61e9eHs5c1U00xuhKh3BjQ1oswir/8+sUUhAKCAikIoBEc82NK49PlDyJn6AiHFUJmabl7dYlLT9LO++WqSWATj7n8SniwRguapYrGI600NatJc/F6idw0AOAElZo2TJpxJg1E9o6r/yp3BNTjS/U0/U3l1uhK0aGfCtDXfnDRVfkNi9lv/T8lZ4wht/Y9ZYwDaRykhTHynBwAA/BDqjRECAMAPAEIIAAgefGcJACB4EBECAIIHQggACB4IIQAgeE4uhIc+gvpFZXj1AQDOxM+NCGGGCgDwpAVCqF1dGl1xMYQZKgDAmxJCyKtLtIFAItJS++0luLzMLV6Tm8xnGcyo/zPHy1zDW259r0F6GdKGXj/0DgAAcOAthEWGp3kkzVeVoarhKN9nAjNUAEBJvIWw0PA0CyFKo4T5allghgoAOD7+XeMCw9NWADNUAEAFPIVwUsvw9FTADBUAUIUSkyVuw9PelR4vFFFZFC2u/9E39elGixBPjtiTJcWUmyyBGSoAoAqeQvhMr/yNb2MdaU279BVFhOrLmmgwVWmjHS2jtGd6kN8RrPLxt8fFkWQ8myyFsz9W+RG6AQBODNxnAADBU6prDAAAPxEIIQAgeCCEAIDggRACAIIHQggACB4IIQAgeCCEAIDggRACAIIHQggACB4IIQAgeCCEAIDggRACAIIHQggACB4IIQAgeCCEAIDggRACAIIHQggACB4IIQAgeCCEAIDggRACAIIHQggACB4IIQAgeCCEAIDggRACAIIHQggACB4IIQAgeCCEAIDggRACAIIHQggACB4IIQAgeCCEAIDggRACAIIHQggACB4IIQAgeCCEAIDggRACAIIHQggACB4IIQAgeCCEAIDggRACAILnf79+/fpP/w7OwWRBb+O+/mNPm/kdPa71n8DJZPFGo92c7goabDh7oemgo/7YLun24Vn9/kP46fU7Bd4RId90b2/J7WU21KluOK/v/4bFhBZCBLfLW7q95e24Injq69CW675+vJPtO9/s9R5/LuHerVM/F43XfTijF0s/FhO9vwWU6hrvN3P9wKqt6JMYFDC8oh5t6QMf4ODHM6TZ/TV9zbV+LLfUH79QWz5jvLvG/OmQ3Q0RFXy5J3paUXc6JtXJ29Ly9oE+7ZDdJgrfOe+Uon+xwnpzvie6j47BkZM76s8vi8qWOt9+Q/O7R1pz9/RmR5veQKSJ7unyi67HA+qYdEc53YiI782UQxAdTyO7xWSVz4e8suTXveg65LY1ZZTPo8yJrppNVNaCdsklVXcBfzire7L4GslydVep/dn5iutQdD5dx4xyZJN//VTu4jYrUz9FKq3qc2uVxf+5VfURJyx4pk9DQ5MlHRpMR7STaj+nzb5PIyH1JmQX4i9v2Cia1DWfLERjfovGlftFvt44EYp3BlN1YUU6h/390UxcgiKyy8IMZ3/FjabLwGk0oHtzvv6Auisuq8g/7tLqdknbzjX9EclF5cyGb5Yx9aJ6q/NNRX+Ab1jZPZBjg30am+6CR1/BXZZq14HJamt6/hCPRp9urGJNbkSZtx9O4XafL79dikjWXR3fUO0a5eere+9Ww75+fG5xb8h2aarNkuUczu4T7XmrRbeo7s7nSFDtuT0vpYSQK2j69+k+/nZpxrfW9P61p073t9yfz4Ru+uITKHoY1/S42lLn+k/caPxJo9PX71+073Sp6KhMXlnWjw/WGFyqnOJcr7oo+81r9KA/rj3KmcXkr/jE3NIqOqHI97Shff+GfusbjbsHorTiQzF5o+WTXxZD+eugyWjriWiFV76RIyXk84uI2TRUFRzt4nyshzMaJepuU/EaHTXfMz14XdMk8fXjzyFxf/SuqreZTzkLj3GI8zliPJ7byUJEt9Yzd25qjRGWvMZJ5PiYFQ3xFs2eKvZf76KZNetHunN0x7xIDdZmhv9pPMqZy35Hn/rXRqhTlgLy2lreyOZhmdyIrt7Keggq0pZ2OXW+KggRkVRps4JycuQno06d5h3RFjxHRc8t94jGLNBewyGnoaGucVVEY1jCKrejNc6EFtMBkSXm/rNsFcuZ/iT83RWdn7pkl+VorN/pS3SxOSjkbvG2iZmdE7ZL8b106nwlEQIoqdxm7nI+P5j9S/oWPb5iMazzHCkRVNlrBjUNcxIh/NyJ0Dnd3dAPmBoDOR3f//QtID7V7n0iwqrl1ONrZnxSnJBmo36i212amm2WeR0KUd2p/uiFRr1yXZnM81Vtl/U/+hb5TC9dRRXq98rt4pGv+r3LkwEiYqp4rWR+UUGOrqq3WZl2+SRR1QSu+6X0cySIRfC4r4lVodSscTr6564yByM8g8QTDaarLCucmL3iwd5pPMuUN/skUMdcy/P5vCybRB0vryzqQkSFoM2mRwNO+7iht9FOznz9js77W9zIPHDNFy2/nG7UzFjUbOkZxCZmjQV1r0NxW6t68GB9leuRPl9hu+Rhv3wu8sx3I7qnJ10md7vY+yXROYuubV4divLpOvrWzfd4+i9XOSSF5cxol4OyZtc99zkSafn3Uqr8Bh5PFIVJ//epwcoS4AHfxOZDQe8CDaNEx/4gA6fjzGOE4BKQM3xNTJIA0FIghCAX7ubwrOC4F78OAcBPBF1jAEDwICIEAAQPhBAAEDwQQgBA8PzQMUL9/hMvKG9gkD/x3pT3e2FtpH67+L7fee42q/Ye6oVjv2fpYfLrukY/5573wzsiNDOI9ua7NpHz1nfmOB/GjaPMUiIfGm+X1BrQyosaGqBOm136/XIeJqVNfl3X6Fj3fFsp1TXmN9JVI6ut7Z+2+12jS/tbjoj2PI0vw2qXQJAGCzD5rcpZjVnNMZsyBHWTX051vNQSoIylP7K7kFiyxujupqlmohuRSvNsl4N8Vlly2+ygUVR9xAlrrlRI10F9IKr7wFV3RZk2S3THbPLaxdnWdjldpPOZe0Ltdy5ZTHRFU+fLTStTB/v+dKUJMp8PjzoIsq+RIrvOTT+b56ehyZJ2GIIWA+PLsiTrp8psqGpOmpevqF1c53OV00XeNSpEPvw92pgIXGxJEcxOc9XBVZa8NBYqORQiRVfcz2Zo5FjjIkd7Ns9LKSFs1phVk2HieBRDUA2ML0swvAwzVHc5PSh9jcQHp3R/ebKuk8GVVvN+yUgzHx7lTX6rcrxn85zUGiNsoq1PagiahRARCYwvy3FqU9Oq+Qqodo1+U1dcksiKKoEjrcb9UvleOgInezZPSENd4yOgvdT4g6cxQ9AsYHxZA3fd82k2X13KX6ND774YVxpT/X4pX84jcapn84ScRAhPbQjqh3rdAMaXDi7FDNVVzlIcXqPelS7FZGFF5mq4oj9eqKgogSOt5v0SUyS2SbLrUIeCZ9P0aF7a/6VNhrMas+bPRBvUzGd5Q9AsUmUQqPKb46ZmjfNmKg2OdLtdEvkSM4RMdrsoQYt2ntf4Ug7866OK8rXWDNVZzjwOjxefS8APtPhkkcmiHZdf1zS27uvkdUrWIT+tRJs56p0oJyPrnzFzm1uHz8NjMvK4rjRzdMezac5Z9947IS1fWcKN3ZQhqLqZYHwJQBM0+Wyen/aOEQpgCApAO/lpz2YrhZC7fzwzBkNQANrFT302YcwKAAieVneNAQDgFEAIAQDBAyEEAAQO0f8D32SEZLSz5sgAAAAASUVORK5CYII=;" vertex="1" parent="1">
          <mxGeometry x="679.5" y="405" width="322" height="295" as="geometry" />
        </mxCell>
        <mxCell id="AO4dmCxWEqPezHxjVxyz-5" value="" style="shape=image;verticalLabelPosition=bottom;labelBackgroundColor=default;verticalAlign=top;aspect=fixed;imageAspect=0;image=data:image/png,iVBORw0KGgoAAAANSUhEUgAAAOIAAADVCAYAAABKbyzCAAAAAXNSR0IArs4c6QAAAARnQU1BAACxjwv8YQUAAAAJcEhZcwAADsMAAA7DAcdvqGQAABcrSURBVHhe7Z2tb+sw28bv59UDS0qqA4ZKdshQcVEHJxUdaf9AUaXRwqlwdNLQ/oFJQ5UGN1RcdMhGig4aKSl/Xt/+SJM0dhI37e6210+q1sZzYie+4o/4iv/z69ev/xEA4Ef5P/sXAPCDQIgACABCBEAAEKJo+jR9eaPHkf0JThZZQhw90tvbm/280LRvt5fRn9ILx3mZqqJbg7rxMukzn5fKieTo9f4fnA9ihNifvtDbsEOLhxu6ueHPE9GfagLpX18SLWa0oEu6rlHO4+ItaabTpz4PC6LeBOICOyPk8cWIHt+GpEo43T3bTZXh5tuE2h839HrxQmN6otv7uQ0LERGPa0SdzDtKkpnZZvbZa9mw9YIebu9JbaRJsjHFckY3OsPF8eZJGmdEwyF1dSDfCNzxffGYXFgoXpIO8FPIqBFHV6qQLelvTFnoX9Nly8Sd//um1uW1KmYViI2X53NFa+rQhYrcn/4henI1+oOqaXs0VrXl/P5Wb5stWSsPNlx9bOH3xXN0hwNa2ZbCbNmloe00huL1p2PqfSuBuWOlbh6jRyXCJEzF6wxRq/8wRz9Yw83L1vKvKWTPf2nZqtbMjI23xfwffbuv93e0qVTn9P61plb7t/3tpyzecnabhD//VWruXqk2RIXj2f/LMqKrrqodkxpwTvcfy/gbEWiE/9q/2/BAxqRHmwZVqmkTG9Y4fbq+bNHyw+39mf4uhzRgRc2TElpAbLwC+heqPiRa6e/5vCuUbkqpE49r4GHbfA/E41r49+MbDd/UR/3mmlg3vXV6Va1qtyeoZm0psdc9FAY0MvqI9kJ91+0jFhVEJtNXKiA2XkEfkQeZJr1v1cT7q/u5HVfgXVj7I2mC8qjpYLUJN5j+cXG8T9tHTJ0XTsNgRTe3/0qPtyF1jPdrlfc2fUAIopDRNJ3fk2odqb7QY6op1afpY2rUlMXDjwzSjxp+t6nF4kn6QerzsKB1upkZG68KShQ8CLOc3dkNRN//rMjUccebkRLN50o1HT1NwFC8DeqcDLq0/nq3v6vG+yR1aMP8nb7Wm34mkIGYPuLznR2IYNHoz5joNVA7KUZXplBm/kcXtBZdBhQVG8+QSqN93GIqoGd6XazVzcSGqVrnS/1OM79/0gMqExdfi6E8XhL2NqHLL1cDhuLxqKiLY+Lx4IyJp/qEt2aAZhOO55s/DdwXAAjg6EdNATgFIEQABAAhAiAACBEAAUCIAAgAQgRAAEcgRPNM7LifP59CHnaFZ/e81feMngmyhMjTt5KHzDWMwYI4Z/MvjM/xiBGizxgMToVnuuPrGprLe8YcgTGYm3Uhc6yJa7YrMhO3Q2Fmv5vpmel95sIqGGfN5O+CuZ46rpu8XdHgW9mo68sf729M9PRB7Um947mJ6U80TvKzTK5LLp49ntoYND5nzs1W3mLzcFrIqBErGIM35tgHWqy7NNBNIL5YxlVgalFjjp3ozlgoTIU2bJwtM/8yxXmIO15Z/oha1JsUG4rLjtfqTYyLQ4U/8HzWgenXxRqfXTjvK0udPKiw1Dk7NY5m1HRjjk0ZYEd/1N15SR/WBqQnND8taN29Coa5y3xo42xhHmKPF8q7ZctQ3LlQ3yocj2slJ6L3L1q32sQpjTU+e6mVhwaOJxi/EJ19KPmkLEqxYftgvaJP+3WLQBjfpdNuj6RGSBlnkzwMk4ZT8+xyvFDei1CCqnK8jDNlfk+3rrWQu7aFzdG61M1DFY6l7KbwO/T5AiRXI0dsmA/tOu/RFefa3air4u7W5pfxGtqvwTAFW6/M4bifwm9jI7rVVr9D90Uij1eSvy1UoTf4j+evb9Q5mvSIFqoZaWswY0TWX+Opm4cqHLLsNoSMpqk6AT5jcBB+14y6u2/6DSoOG2cXr8Gw7QLYnHE2ZP4tJPZ4obxvoUSkaj1tKN4xf7HG50Jq5eG0EeVH5BG7TStprW6+3D9QF0ePOG5GVLOvhMiNumVG5XxhZp+ZcpSJtx2evPOllFxcvd/tV15k8xB7vOr5y+7PH178Og9DdmR4SYtFh3qZV3P4854+liZJazgP/nN2WsAYfJJsF2Igm6MZNQXglIEQARAAmqYACAA1IgACgBABEACECIAAIEQABCBssMY+3M3YlXZEr1fhHhe7SQL25x4IPRCPITvJwVB1ckHTaQH7Q06NqN35V7TassrEwzMx3iJXIZYECy+xFqkPhHV6yDEGv1zQqzOZXn41UCOa2pU8K0y52qKSATaZdsXkwiqaY8P79OOv1Xh/xcbZz5K0ePNO26td6RtkfhtoHCE14jPdNdUUdVQwG/sMsCHjbKw5dj+r9BYbZ6uYlIvy7iZhaxeMhRfsIbegK9gb5z1YU2CAnauaNGScjTPH7mY2ZtFsPHLZt8FFG2cL8j5SctMrTCVK5HSrfvUrZLhv/EI8QnNlXYoMsKXG2Vz+CpuAeXY0G+f7iKmKLRqf+VeL0r25gFsVy4+9Dm4Bg1+I+uJsLn76nS7RYYeEzca5ZlZ1uK+VzoP66Kaz6nc6c6zdvv0eFh++fQrD+hX5vHGzdBlq24PGOJ6mqauJqr6gVt0QfGbjYPwKxtna5tgdzbix1DbqakyzuTt4oUFnQWiVHgYhQuQRwFRTr2VX1d3xrdAxqxDrguhdUTd2VeDQPsvJ9xGrxitOSwV40KalrkN+VWWwN+C+AAXwox8ejd3v5Aew4bxHTUEho8chBmkODGpEkJBMp2tyiiGoBIQIgADQNAVAABAiAAKAEAEQAIRo4YGK7PM5HsJ/wwq34CDIEWJuDmcTk1BYXG5/7rO746FItOXskpaY44HjQogQ+zQdX9KXM/DOltQdNrN0d7yptvkVbmHwBT6EPr4Im3qrwjWJ/1UROaOugoXC/5tZ4yFl4M2u/ZCigsnXnxYYfMEZ9xGzRl1jonX4VritYriNAwbfc0ekEPUUq3UzM/8LTbWqPzrIGHUPAwy+wIdfiLnBk0MZg7n5N2SRNNQ3y/fLDqy9DPtICwy+p4FfiD9gDDZ9MPbdoh+zMzD4HhVimqYbEXqsN66mbeK53vwffaf6UKYWNt+rEGe4jQcG39NHiBBH9EeP+vGgRapZ24Doik21z3SnH5GYbTzYsRmYyZmUu9bMm+rQxRpuYfAFPuC+OGlg8D0WRI6agmaAwfd4QI14gvCDfhh8jwsIEQABoGkKgAAgRAAEACECIAD0EQvIuCwqLp8GwC6IEWIy0mfZrFUYSWalYIOzOVVFC5KdDTUSErZe1Sd/Xpiq+Wg6LWB/iGma8uvxk/mpDwvqNGIMTi38ovZJvclROt3zk8UhrNNDZh9RzwVtGJ6MPltSq/fHukE2U9lqTRvzxOPak39z7ZWZypbsN/Z4Pnh/fLOy79bRH+N0KUsL15R8Q3L/xx8dpJdPz7lliraBxpEpRLbtrL/ovekbv16qrUMXqlKMXcHXFw8rBoNdECTEVI2hbuXLjz3MCLE17f08dgXfQ8cz5CeLpytTGIpPA78QD24M5qXL7J1b3d1Xgz28uUyv3Ov+Rqzge+h4lnwfMVWxRQNDsSz8QvwBY/CGmnf3ivSvL1VjzvU+UwM57lNpXuah4x0YGIp/BJl9RHU/Zn9iphDsagwePepng8vZXVLYaq/gWyEeVgwGMQh5jsj9w+yrDbeeI7IQJz1qVXUUbD1HVH2djC9v+5jm+RxtbdckD/Z98dyOc+GV4xXjf45o0tn+2Jyn7eeexWkpf75oXmfZqZA+0AyYWQMKgKH40AhtmoKfBIbiw4MaESQkzWAYig8OhAiAANA0BUAAECIAAoAQARDAmQvROhcaWhU47WbY3V0hlWbPGTDIE+KuM2gc2r5jRWE/jc9dzeFbzm1f8ChnbB6dFQrIQJgQ+zQd9+h7mVqscCdS8zsLjcHNrwp8aPITwvc/E+b4z5lERAmxPx1Tjxb0+tduaJKcMTjcjOSpYemaxjlIeHuxGbec3D5djb8XM64/ndGmYUWtc5YJ951P4JAjRNUkVZUhLZ72eKdNGYNDzUh9Q0itJpx1kKTNuGy+rTaZuz/9Q/Tk9vegF5UZc+28NzNus6ZhvmmEzlnI+Bw+n4ARI8TRH63C/U6rqvMKDufJK2BjxmUdqRLduTC1W4D5/V0qb2mb125m3EOZhsMxKxifA+cThIQYMvjGhvlQTbFhZ0FP++7fOGNwCXzn1zWdzUPpoEZpQVXkzkvyukbFLmbcfB8xVbFF4zMNeykxPtc+n2eIX4gHNAbrplgrtf6f6cDo3xVafZVxxuB/FQr55q1yM/reGuTJsV7Rp/1ajOqrmVVYk/OSad6dhBk3bHyudT7PEBFN08yrFPljOjD0oL4nd3hXozRgDK5XzD9p5X0aoQSmbhqZGiTAt7sDqLyM08ZE25Q7pBm30VWPaxmfQ+fzfJE56ZtHDQerrAOAhdiYMZhH8bImXY02zn5uh1Uy94b2+aySn3p7uKo9FosO9TImXh7hrGfGTdwSKfZnGg7nz39uCozWSRzggPuiFqawpQt4c7AQYcY9V+Q8vjhzYMY9byDEH8ZNU+NRY/fIAJwfaJoCIADUiAAIAEIEQAAQIgACgBBBTayjA8bgRhEjxIzFxn52m97Gz/yy+6vjmpdknG00LXaGUnp/ZuT2B6xJktLyw4iqEfcxgZlf3W/2N6Nlt4k1CY+c321qrddEiRNjRFedNVWfddagMXjntJwOZ9Q0zc9xzNWYtrZ0NbOZd543zpo46YpV/7/d4GqudO1ugjhefUNxOC1Men/qU7W5+P1FX52N24M+Pujb+jRdHov2mWm1pE9CZP40ddKSHDN0PBMnnbz0NZLK+Qixf02Xrc3E69iVf8soMtXakEKjbohwWrjAmbmpZrsxG08qFbh/9P7VsW4PouyiWx4DsyJkDI7Jn8GflvAqy7HHk4koIRbf9XejO7T7m1zSl7poRk8VjKyxFJhqHdFG3SJGf6jXWtJHMidO5eFpsfE1euhfGEcmp61z9UhXlH0TgN/AXE7d/IXSElrV2dHo+fxh/EJ0tqPkk2pqxIYFcHfb9N2vCTGaPiLfMVt0eW1ltuMKviGKTLV7o9QHGYCtSx2VZ10FpZrtueuXNjDvjaK07PEaScQvxAMag7cxd7jmsHdT++IoQ9jIehTk3wzAgx/2a4j1iuWrzsltekCspWuhoIF5D/jSYii+RqeIzD6iuiuzcbbRFYOfXzf9iApG1pBxtmNGErgTc5AaozAt9qVTm36R6jMOuqpl/Bpx48viNzAfkFpm420OfY12RYgQc6Njmf5cU7hacUzTPt+BbfPXHVN90o825vdPZvDDhesCoeKpfhi5vuxgRbM91xhMcVr4MYJ57YRJvxnYKDMV/277C+XjyL7IKulXt+kryd/mGumC3bXnbofuQzgt5deomJ+5RrsC9wUAApDZNAXgzIAQARAAhAiAACBEAAQAIQIgAAgRAAFAiAdh2xFQD+sygBn3ZPEK0Rg0s5/yh6mGRo2sQB67znICWwRrxLxRd/+r0YJiJK3Sq2r3Rld1Box3Zg3Xav41EMZETx/UngzJzIfnybl39DlNr++Qwrc+QmoNBHe8Jxon+2DnRHCam17fgvSxk3/LbOMmnUujIlk3w6TDtzZEVFocuTU30us/tD9mRMPsObO596TTpsudsKI1IwqPp2N6z7XBHrPmOhQ6PZdf9PDRpkl+fRIQTWQfMW412rDR0/gRi1aq9RJcbZcLYqxxNiItjBZFhxb6vJhP+kbWHRYZWcPpDJpxA8crO9dR6Enge17V+UwJCjFj1FWfdBmub8qsYMYtMNWG9xpYbTdgnK1E7bQoQWn3g3/V48JzFmnwDR+vivHZNneT/ynnIKs6nym1+og1rtk2FYyetVeqVWiR+Fbb3cE4Wz8tv4nNBImFqA5R6Qwcbx+mWlX7HmRV5zMlsmkaS7HRc6dLa31rhavtRhpn49hhAc6odJYdr9lzfahVnc+VvQix0Mi6o9HTj2l2ba22GzDOOpo1j5rmZndY8e1ljmiDb+B4lc61fTZZ8XpUWtUZRFOrj1i1s+811UYZPSvAhbmlhJRZQjtknDX9sKbNozyw8rDoZJqE5fkLpZMHcsx+9I0iZ8b1H2+P5xrshRMxBvPdnUck3WAIAMfFgfuI+wGr7YJj56hrRH7wrgcDUw/AAThG8M4aAARwEk1TAI4dCBEAAUCIAAgAQgRAABAiAAKAEAEQAIQIgAAgRAAEACECIAAIEQABQIgACABCBEAAECIAAoAQARAAhAiAACBEAAQAIQIgAAgRAAFAiAAIAEIEQAAQIgACgBABEACECIAAIEQABAAhAiAACBEAAUCIAAgAQgRAABAiAAKAEAEQAIQIgAAgRAAEACECIAAIEQABQIgACABCBEAAECIAAjhTIfZp+vJGjyP78ywZ0ePbG729TNXZAD+NDCGOHumNC0Xq8zKtXjxGj/X+Xxqc/tj8H3vegUFQjbik2c0N3fDnYUHUm5xVAVsvHkze7ef2fm5D9sUz3fGxbu9p30cC5fzn169f/7Pffw6uEYekhHiniocls42bkhPqtWzYekEPqgCpjTRJNqZYzujmjvdUHG9ut7c/ZkTDIXV1IN8I3PF98ZhcWCheko4wXKsNVg8F4uP9jYmePqg9yabzsyTvbp9PNE7+bzm7IU5OPx13K42hPITyDnZBbh/xc0Vr6tCFqhT70z+qMLra4oEW1KOxqi3n97d622yZq1FswfHFc3SHA1o9mPDZsktD22kMxetPx9T7VoXTHStVEEePqpAmYSpeZ9hArd5SjQOXTrXPdZcGFfLOtFSrYtL+0NsfFmvqDkx/0MXlbXlCeQjlHeyGXCHO/9G3+3p/R5vKYk7vX2tqtX/b337K4i1nt0n4819VortXxFIsPZ79vywjuuqqGiIRwpzuP5bUurzWhb8MFk26j5geSNqks3reNVyT2/TM379o3WpTOGaFPBTmHezKf+3fbfpTepn01P3YkWqGxIbVoX+h6kOilf6e36dC6aaUOvG4Bh62zfdAPK5Nfqtm31CJRbWcdW2km5Q6vapWtdsTlBiqkOynQdZf70pKlvk93ZbtviQP3ryXEVteQmEnhl+IoQsXG1aD/vWlugDfqibgYfYeETe/7EXXfRyrGT8qnrqIleP9blNrvVIXuTze892NLQycNh5UIrp959+nUFDCeSjMe5kYf7gsHQMym6ajRz2YsJzd2Q1E3//sFVF3yfFmtEDzuVLNNU8TMBRvQ5+mg66uQRzV4n2SOrRh/k5fqv/m+pmHIpT32tTKQyrvYGcEjZqaMUHDWlVIm/5bZpRP3bEXiw71eBAi6csUj/T5433mRv+yzaw68cKjitWabzzCmcm+wsTjgWEe3TWjnYypncvzHh6JzeWBSfLhy4NJiz/vYBdkCBGAM0fuqCkAZwSECIAAIEQABAAhAiAACBEAAUCIAAhg70Lc9svxjIw3GFIBSHE6NSLPS4TAwZHyA0LchyG1T9Nxj76XVWaCAyCPgBB5qtPGlrOpacz29HREnnb1lmzIxktP3dL/5/ZXOJ/RNltrztfUPjla0OtfuwGAI8MrxDJTrY+ssdQYVx0hQ2o0elI20eIJr3wAx4tXiFFmXCWKQcZYWhfbbK0Rf/RHqzCVVgCOD3/T1A1+2M/GjSCI0SMNOwt6ggrBkeMRYsoca5uYjTYnG2J0pTqgrR5N3A2DO6T2d81uJgA/SmCwJmyO7fBbnRhr4tXo98x06cqKgAdn8j67MPUGa9gt7m4U+mPepEQP6jtscuCY8AjxmV75rV9DW9NM2vSV1Ihzun8y7x3VYYMVzZIw1cdTYnDx2MC6qUk3o6lauN2hiY+qCwAYgwGQQLBpCgA4DBAiAAKAEAEQAIQIgAAgRAAEACECIAAIEQABQIgACABCBEAAECIAAoAQAfhxiP4fIjz8g472tPIAAAAASUVORK5CYII=;" vertex="1" parent="1">
          <mxGeometry x="1060" y="414" width="226" height="213" as="geometry" />
        </mxCell>
        <mxCell id="AO4dmCxWEqPezHxjVxyz-6" value="" style="shape=image;verticalLabelPosition=bottom;labelBackgroundColor=default;verticalAlign=top;aspect=fixed;imageAspect=0;image=data:image/png,iVBORw0KGgoAAAANSUhEUgAAAOoAAADoCAYAAADhXHhFAAAAAXNSR0IArs4c6QAAAARnQU1BAACxjwv8YQUAAAAJcEhZcwAADsMAAA7DAcdvqGQAABkNSURBVHhe7Z0tb/Mw24av59UDS0qqGwyV7CZDxUUbnFQ0aX+gqNJo4VRYOmlof2DSUKXBDRUXjayk6EYjJeXP68sf+WrsJG7Sxe15SNG6pE7sNGcu2/EZ/+fPnz//IwBAq/k//RcA0GIgVAACAEIFIAAgVAACAEIFIAAgVAACAEIFIAAg1FYzpNnrOz2N9b/gbGmXUMdP9P7+rpdXmg31+iKGM3rlNK8zcWlXoGq6VP7U8lo6k5y82vcBMLRGqMPZK72PerSa39LtLS/PRHflBDS8uSRaLWhFl3RTQQd+6Ta0kPkTy3xFNJhCfKBxWjKEcExP7yMSCqCHF72qNFw9nFL385beLl5pQs90/7jU21x4pOOIKrP5QFE2U+vUPgcdvW23ovn9I4mVNI1WJtgs6FYWOD/dMsrjgmg0or7cyDcKc3xbOiazzZUuygdoK+2IqOMrcRFu6MvnWhne0GVHpV3++6HO5Y24DEvgmy7L95Z21KMLkXg4uyN6NjWCuYjUA5qIaLt8vJfrFhvW0lxvF4sWhy2doT+6pq2uaSw2fRrpRqsr3XA2ocGPEKA5VuLmMn4SIo22iXS9EWoFLSf4ziSuvnY2X+oifPmiTadcNdY33R7Lf/RjPj4+UByUl/Sx3lGn+1f/b6co3WZxH21/+RJq71+JOkiJ4+nvpRnTVV9E1yiCLunxc+N/owJHwS5U09ESLU/xj+67rXaGdHPZoU0Uil/oa9Ohy0LF+abLYXgh4qkmU/bc6m4eVdLJCK5xpOMoLqOv3hZFTJnfeL1cRqpSXYjv7+7aBkrRjjYq/5DTAf1UbaPqdHuXdaqtloNvupw2KneCTQc/ogr5JdvZvdU8auvKbd3PqIrLvb7X23i7QrXP89N96zZq4rxwHq63dHv/r/B4MYljfNyIsnfpM1EG0H7aUfVdPpKofYm2WPJOO6TZU6LX19yVk49S/napw+KK2mFima9ol6zG+qYrgxANR7HN4kGvIPr5p0UojjvJRMbvraiaWqqYrnQx4pxc92m3/tD/l033TeLQiuUHrXdxOxeEQWvaqC8PuqMkqh5NiN4c0U0wvlIXbeo78kJ0V2N90ykSedSPk1QAe6G31U7cbPQ2EbXW4v8ky8dn2eEzNemlWIrTRdvep3S5NhHUlY57dU0alY47j1Q60Sa9Vx1I8XY83207eMMDAAEQfK8vAOcAhApAAECoAAQAhApAAECoAAQAhApAAAQgVPVMMOzn86dQhkPh0VHv1T3DQNIuofLwuOghfAXjeIs4Z3M4jPHN0Rqh2ozj4FR4oQf+XV1jqYGVAIzjXG10madV2sj/kRpY79qm9hsPjz3MWK0G5+eMtZVpzeD6kgbw0kZuW/l4fxOi50/qTqsdzxgHnmkSlWcT/S6ZdPp4YqWj7C/pc7NXNt8ynBftiKgljOOxeXpOq12frmUVi39M5QpRUViZp6eyMejaJrbWbKwuMocz+WXwO15R+Yg6NJjmG86LjtcZTJULR2yf83jia9Wu9DXGm+28rzRVyiC2Jc7ZuRFMr29snk4YpMd34u6+oU9t85IDzp9XtOtfObeZy+DYxurcMvgez1V2zZ7hvHchPpU4Hkc1I7KPNe06XeKc+hrjrVQqQw3HCxi7UI09LFpaahLebelbf9zDsa0RY7UPhxzPVfY8hODKHC/lLFo+0r2pbWR+29zqblWqlqEMoVy7FbALVf5Augojl0TbwHebDfnWgj5d+ZwVfbePYK+p/ujcJmBrncrjgn5SbxPktlCyDGKJ2rZN4Hm8gvLtIUSh8DmeaEtOB0SruGq7X5X1oGoZynDMa/dItKPqK06QzTjuhN91JAQet1tEGjZWr96c2/ZPfn3Gapc5PBff47nKvocQmYia0nB+YPl8jfG5VCrDedMqPyr3OMa1sJ24eXP7RPx4ssc07hFOv3Ik02uY6lW0bVP7TF1nqXT727mTJP0KFRuZtHK/+69USZfB93jly5fen317/utiFOme7Q2tVj0apF79Yi978liSKK/uMtjP2XkB4/hJsn+Rg7AJptcXgHMGQgUgAFD1BSAAEFEBCAAIFYAAgFABCAAIFYAAaFlnkn74nbKjHYicL8Y8TjeDKPS/DeAaMOBDehCIouzgi7rzAn6P9kRU+XaHK9rWMX5UwyNZ3j1nMW8TLMx4/OkthHeGtMc4/npBbyKKEg8Tu1zXEFFVdCbLDHEm2pQySEfD2pjMtpLmafc+7dijIu8v31j9XZAXa9lpf7Y6eQPNrgNHpyUR9YUe6qrqGkqY0W0GaZex2tc83cws3/nG6jIm9ryym0HySRcTT6hFZsJn8Gucd2dSjkF6KSKxy1jtZ54+zIzOooo9kum3GXobq3PKPhZylDPERUrlfIt2/Rtk+tvYhXqC5tsseQbpQmN1pny5VcwsB5rRs23URGD0xmYOl6I1b77gWsnms9HON1AOu1B9DbaubcfkEDO6bOslyyAWWTUX7V5v87SPWfsX0H5VPm9c7d242g7gaIRT9TWRrOwLnMUNw2ZGd6YvYayubJ4+0KztS2Ujt0RVy/vXr3TdWxFqve2gJULlHsxEVbKjZ+U+8K3qPrOYywvVOiO376zirn0Wk22jlk2Xn5cScKdSR/wO2VnZwa8B9wzIgR9tcW9ys4NDQHnOu9cX5DJ+GqETqWUgooKIaLhinUM4QS1AqAAEAKq+AAQAhApAAECoAAQAhKrhjpT080l+RPGOGbJBK2iPUDNjaOsYxMPiM/szy+GOlTxRF3NIXnyOB06Llgh1SLPJJa2NwXuxof7oleq4Nv1N1/XPkA0DOPClpY9n3KbvsnAksr+KJGPkFrCQ+LupOVYSBu/03CsJSpjA7XmBARwUc7Zt1LSRW5msDbYZsssYsv2AARy4aaVQ5RC2XT3OjVzTtWgPX6eM3McBBnDgi12omc6dYxnHuXo5YhHV1DbMtguPrM0UTeQFBvDzwC7UXzCOqzYg+7LRjjoYGMBPitZUfWORWqxVJlLX8Vxz+Y9+Em04FcXV5zL4GbL9gQEctESoY7qTvZbcqZKoNtcgynzT9Qs9yEdAah13xsQdRxkTe1+bvRMNSl9DNgzgwBe4Z04aGMBPhVb2+oJ6gAH8dEBEPUF4IAQM4KcFhApAAKDqC0AAQKgABACECkAAoI2aQ8olU3J6RACapDVCjXoqNfFcpZ6kZhpXGBtbWaRg2ZlSISNua111sueFKVuOuvMCfo/WVH15+olofPB8Rb1ajOOJiZnEPmkwDfJNCdnB/BDe+dHONqoci1szbBZYbKgzuNNunnioYKVheZZ0HH35f45+qaGC0X59j2eD98c3M/1uJ7kop1JRXjjS8g3LfI8XuYlrIVm3U946cHTaKVS2Ze3W9FF34JBTMfboQgRV3xnAbekw4zhokhYJNRFxRCjYfDYwokZH6sel7wzgx06nyA7mTwZjGM7PA7tQj24c56kJ9Z1fRIftdQNv3pMzf5u/HjOAHzudJttGTQRGb2A4Dwu7UH/BOB5TMTqUZHhzKSqLpvWb6GgyS6lxscdOd2RgOG8l7Wyjivs5+1NTF8mhxvHxk3w2ulk8RBdj5RnAS6TDjOOgCVryHJXbp+lXd+49R2WhTgfUKesI2XuOKtpaKV/m/jHV80naWy+JBj7Y0pkdZ7aXTpeP/Tmqymf3Mz5P+8998/NS/HxVva61VyJ/4DhgZBLIAYbzttHSqi/4TWA4bx+IqCAiqmbDcN46IFQAAgBVXwACAEIFIAAgVAAC4MyFqp0nNc0qnnSjHO6OaSv1njNQjvYJ9dARSAZpz9Ki0UvtY4cz2KZrbArupfUto7G6gTBomVCHNJsM6GeTmKz0IBLja3ON4/XPKn5ssgP2mx9JFP45C5FWCXU4m9CAVvT2pVfUScY47q6m8tC7ZKQyDiBen2/WLiazT1NjaMSsbc+nt6lcUOmcpbbbzicoS3uEKqq8IpjS6rnBO3XCOO6qpsobRmI28rQDKGnWZnN2ucH2w9kd0bPZ31xO+jTh6N6YWbteUznfVFznzGWMd59PUIbWCHV8J1Xa7LC1Kq94MZ7MHGKzNutMXPG9CxUdHSwfHxJlS9r4DjNrH8tU7k5ZwhjvOJ+gGLtQXQZw3202RFVv1FvRc9PtK2McL4Ajh4yUugyFnS6FF7Igc16i15EKDjFrZ9uoicDojc1UbqXAGF/5fII97EI9onFcVvU6ifk/VQNK/l+iVlkaYxz/V0IE8VsRF/Sz1wmVYbelb/0xH9FWVLM0R+clVX08CbO22xhf6XyCPVpR9U29KpQX1YCiufgcRQgTkWowjleTwTdtrU9bhADFTSUVgRz8mDuEKMskaUzVVcVjmrVrnTW9kjHedT6BjXYOyudez+tt2sHBQq3NOM69kGkTt0Qaq7/3t5Uyf7v2+SKyn3j7vog+q1WPBimTN/fQVjNrR26XBM2Zyt3ls5+bHCN+lAaUBe6ZSqiLMSmA+mChwqwN8mnP45kzB2Zt4AJC/WXMMEDu9TaPRADIgqovAAGAiApAAECoAAQAhApAAECooCLakQPj+FFpjVBTFiq9HDZ8kJ95pvdX5a0LbTJW15oXPcIruT/V8/wL1rM25aXltCqiNjHAnKfGUPtb0KZfx5ykgfO3S53djihy0ozpqrej8qP6ajSOH5yX8+GMqr7ZMaaZiKujrYnsyheQNVarNMnALL+vV5jIl6wdqE2crrrh3J0XJrk/sZStjv6sad2L3Tr0+Uk/2qdrypi3z1StJ3kSPMsnqZKX6Jiu46k0yewlf6NQOR+hDm/oshMPjPedObyIPNO13pJr5HbhzgtfkGpssFqvzOjTUhfkP/pY97Rbhyg9aZ7F4C5wGcd9yqew58U9S7vv8cKkVULNjxqH0R/p/U0vaS1+VKW3EkZnX3JM1wZvI3ce4zsadDb0GY05FGV4XsW+VgvDC+XI5bz1rp7oitJvkrAb3IupWj5XXlyzwhtqPZ8txy5UYyuLlkRVxnebA3O3Tt496xCraqPyHbdDlzdahgfOAO4iz3TdGIU+WAdsTeuJMssQlmgWZH6/pMG9MfLy0uBvFCJ2oR7ROL6PukPWh74b6xebKdxG5yDIvlmCO2f0Rxe7LctbnJP7ZIddR0Yxp8G9AWx5UeT/RudIO9uo4q7OxupaZxx/eYvbMSWMzi5jdU/1dHAj6igRJzcv+qVocbtMtFmv+6Lm/eZxY0xjN7gfkUpm9H2O/Rs1TUuEmundS7Un68JE1QnNhnwH19Vrc0yxJB/dLB+fVeeM2S4vGJFOtAPJtKWvt7RoOOIw+XnhxyTqtSYq/6rjpch0/rdrv2ifxvpFa1G7vkvrqHzxbyQv/L4+dwc0T9x5Kf6N8vmd36hp4J4BIADaWfUFAKSAUAEIAAgVgACAUAEIAAgVgACAUAEIAAj1KOw7OqqhXSIwa58tVqEqA296KX7YrKjV6Azax6GjxEBlnBE1a+RufjZrkE+bZvkWtYNaZ4UHZbCOTOKoaJ+DZEL0/End6YiUn4EHTz/Q9yw5v0oC2/wkiTlIzPGeaRLtg50vzmGEcn4ZkseOvpZax1VGk0dBNG+NyodtbhavvBgyc94k51/pfi6IRulzpktvyafOlzlheXO25B5PprSea4U+ZsV5YGR+Ltc0/+zSNDs/EGgMzzaq32zWbiOw8qPmzXRtxTlbN1+ovsZqj7wwUjQ9Wsnzopbkja4/yjM6u/PpNGs7jld0rr2Qg/QbnhUe5OIUasrILZbkNV7dtFvCrJ1junbv1TFbt8NYXYrKeRGCk+4V+6zpuefM0wDuPl4ZY7yuTkffKeYos8KDXCq1USv8pvuUMAJXnulaIEVkm637AGN19bz8JTaDRBaxKnjl03G8JkzXInofZVZ4kItn1deXfCPwQT+99i3mztbtaaz244AJer3yWXS8es/1sWaFB/k0ItRco/OBRmA7qlq3N1u3w1htqNdcrKqz/VHJt+8ZvA3gjuOVOtf62WzJ36PUrPCgMSq1Uct2RlhN115G4BLwxd4RQktN0e8yVqt2YN3mYu74ma96qSpncflc+eSOJrUfeSPJmLXtx2vwXINf4USM4xwduEfVdNYAcFocuY3aDJitG5w6QUdUHpggOzMTAwQAOEXwziQAAuAkqr4AnDoQKgABAKECEAAQKgABAKECEAAQKgABAKECEAAQKgABAKECEAAQKgABAKECEAAQKgABAKECEAAQKgABAKECEAAQKgABAKECEAAQKgABAKECEAAQKgABAKECEAAQKgABAKECEAAQKgABAKECEAAQKgABAKECEAAQKgABAKECEAAQKgABAKECEAAQKgABAKECEAAQKgABAKECEAAQKgABAKECEABnKtQhzV7f6Wms/z1LxvT0/k7vrzNxNkDbaYdQx0/0zhdNYnmdlb98xk/Vvt82OP++5Q+97KAcLYqoG1rc3tItL/MV0WB6VhfgbjVXZdfL/eNSb2mKF3rgY90/UtNHAofznz9//vxPf/49OKKOSAj1QVw+mtQ6rqpOadDR23YrmosLTKykabQywWZBtw+8p/x0S72++7kgGo2oLzfyjcIc35aOyWxzpYvy4Yaj4vV2niNO3t+E6PmTutN0Pr8Lym72+UyT6HubxS1xdobJtHt5dJXBVXbQJO1to35vaUc9uhBBdTi7ExeriTZzWtGAJiLaLh/v5brFJhOR9IVlS2foj65pO1fbF5s+jXSj1ZVuOJvQ4EdcvOZYiQt1/CQu4mibSNcb1VAr6IjKhcmn2OeuT9clys50RK1k2v2U6+erHfWvVXvUpOV1WVxlcJUdNEt7hbr8Rz/m4+MDxcFmSR/rHXW6f/X/dorSbRb30faXL3HF96+IpVp4PP29NGO66osIEwllSY+fG+pc3khxFMGiSrZRkx1dcT7Ll13CNQGdn+XHmnadLrlTlihDbtlB0/xX/91nOKPX6UDczw2Jao7vtioML0Q8JdrKz9l9CoSuCqmSjiP4qKs+O9JxNPorqpUjISZRM5fRTFZZZX5FVNbrI4RYyhDtp0Z26w8hNc3yke6Ldl9QBmvZi/C9Xlzbzgy7UF0/rO+2CgxvLsUP9CMiCT9GGBBx9U5fFLKNpTVlR6QTP3LpdH+71NltxUVQnO7l4VZfLJw37vQiuv/g/0/hQnKXIbfsRWL95WvpFGhn1Xf8JDs7NosHvYLo55/+xcRddhL3Zki+t6I6aKliutLFDGl23ZcRyFAu3TeJQyuWH7QW7UfTzj0WrrJXplIZEmUHjdOiXl/Vp6nYiYAWtx9TvZTijr9a9WjAnSRRWyq/p9Ke7jvTe5muxlVJ5+4VLVc95B7aVPEFKh13bHPvtOqtZVR0Ly67uyc5UwYmKoetDCov9rKDJmmHUAEATtrb6wsAiIBQAQgACBWAAIBQAQgACBWAAIBQAQiA2h/PpJ5B4jkbALXQ2HPU/Qfzh2F/gO9JZhypsYAdQnbgQh37BIA506rvkGaTS1pri9vtYkP90Ssd6kjjcbCRBWy+ol4N+wSAsURUHkaWb1hWAYIHZJv1gpSxWpEfUfOHuymyQ9fU8YoM0nvpEnlxmafTqPKIAya26TJ6V985PftI46GQAPjiiKhJw3LSWM3CGFGP3SUyeihj9bTEQG4fU/Kh5nCbebpxxlfU363pAyIFNeCs+u4Zq3sX4gK8E9FrQ59RmFjS4/OKdoWG4mZMyYUm7xLm6fGTiJzie2+pwKnfKVQpmvJNTJu/RWN184n3EYF6qNZGFRe5ZLelb/WpPAlTcvQmg0TPC0dOGbX1ttKvMOFOocQ+s9XkPfN0xmvJVfQR30AyVXc/xM3nPo7u22u8IRDUQzWhCoFKslGJTdf6oxtud5oLWS8JgcSdMQv6KfUWQtEONCZvvb+89wDZUI+SOHkTZu+Kr00BwEFJoQpBiOgnjdUvX0Ju6gVbClHdY9P16s19sR9oSj7cHJ4mFqmts4c7g0SU9jaCj+lO5GXzVf8tAJwfjl7ftEk4bYDWPaL6P2sPrMGxvbwpOZNWb1eCi1amTOX2Z6+Z/BtSvdf6O6V7fffLhueooC6cQk2+WQAA8HtUa6MCAH4FCBWAAGhsrC8AoD4QUQEIAAgVgACAUAEIgMaFys8y0yOM9EACzHQNQGlOJ6KaMb+4AYAT5BeE2sRM10OaTQb0sykzxRsA4eEQKo9Oil0pcaRS65NDYHkYXzwmNp0u+WoS+T2zv9wxtH7ja6WXlVb09qVXAHBiWIVaZMi2kTaHK8O3wTXTtTdyID7R6rnOCA1Au7AK1WuWbyGa65Q5vCrVzdrjO6lSvO4EnDT2qm+BIbsVjJ9o1FvRM1QKThyLUEVb8QBD9rEYX4kGcGdAU3ND4Qax/t/bRgpAC3F0JrkN2b0L3V7Vs4NLlv/oh/p0pUXCnUfJzqRiqnUmpV7PyYt6AxrNxWfY88ApYRHqC73xG/tGOlJNu7SOIqp6mRkNpmrb9ZYW0TbRxpTvyFXp+O1/cSSOe4OlsPsjlR6hD4BC4J4BIACcVV8AQDuAUAEIAAgVgACAUAEIAAgVgACAUAEIAAgVgACAUAEIAAgVgNZD9P9HdsLRgwsdoAAAAABJRU5ErkJggg==;" vertex="1" parent="1">
          <mxGeometry x="1300" y="760" width="234" height="232" as="geometry" />
        </mxCell>
        <mxCell id="AO4dmCxWEqPezHxjVxyz-7" value="" style="shape=image;verticalLabelPosition=bottom;labelBackgroundColor=default;verticalAlign=top;aspect=fixed;imageAspect=0;image=data:image/png,iVBORw0KGgoAAAANSUhEUgAAASAAAADLCAYAAADOd051AAAAAXNSR0IArs4c6QAAAARnQU1BAACxjwv8YQUAAAAJcEhZcwAADsMAAA7DAcdvqGQAAByJSURBVHhe7Z0hb+s+1MbP++KSkeoPhkp2yVBx0QavVHSl+wWKJo0WToOjk4b2BSYNTRq8Q8VFl2yk6KKRkvL39bGdxEltx3GSJmmfnxTd3aRObMc+OXZ8nvzPf//9938EAAAd8L/6XwAAODgwQACAzoABAgB0BgwQAKAzYIAAAJ0BAwQA6AwYIABAZ8AAAQA6AwYIANAZMECDY0b3L+/0uND/BWDA9N8ALR7p/f1dby90P9P7y5jd0wunebkXXbYCVdPl8qe2l+BMcvJqvwfgmOi1AZrdv9D7fEzrh5/08ydvT0S/wgzD7PqCaP1Ga7qg6wr9Oy7dht5k/sT2sCaaLmFUAAigx8GoC3p8n5Po2XT7rHcFw8OUJZ19/KTX8xe6oSf6fbfSx3xEpGMPSGbzltJs5vapc05H+thuTQ+/70jspGW602DzRj9lge3pVmke34jmc5rIg2wAk+u70jGFY750aT4AaI/+ekCLS9G5NvQ3pg/MrulipNKu/n3T6OJadK8AYtMV+dzSjsZ0LhLP7n8RPSUe3IPwrKZ0I7yj1d1vue9twzbiQR8Xm+70rnQJk/kVbbVn+LaZ0FxPCvnSze5vaPotDEtyLcNoLh6F8UmPiXTjObw40DpHOQnNw6jR5q/qXM9/aTMKG07Fpttj9Y++kz/vbilzolb052tHo7Mf+v9uytJt3n6nx5//Cis2uRQ+Y8D19O/yLOhyIryh1ONZ0d3HJt4AAxBINQOUTNCm22PWmGOPNc6Mri9GtEldp2f6uxnRRakliU1nYXYu/B9NoezWYZeNKumkx6XxpGOvS3pL+ljq4cj8ZvvlNleDu1Ji77vvGDgZ+jsHxA10OaXvqnNAOt1ed83NhViITWeZA+LJ8+X0Wwxl/sp5rPH6IZ1LksfOPtKhFr8Fu9pmxxVq/sue7lPPARn1wnm42tLP3/9Kr5dhXOPPtSj7GX0YZQDgEPR3CLa6IzEKoMncfDLO6P7ReAuWPEXNV+Y/zmjERiOd5xDbw5p25nAqNl0Iwhiw17F5u9U7iL7/aeMirntT8GQ+t2KI5Bjq+NJliDq5mtDu64/+f2i6TxKXVqz+0Ncum0cC4FD0eg7o+VZPsKZu+g3Rq8cbESwuVWfM/UZ2MP9wKjadwsijXjagHI5nel3vhBHVx4SX8SX+b7K6e5ITxcskvTQC5enSY+9LuvhKPB5fOn7LlaRR6XjSWaVb0d1vNfGcHcf6JNA+0IQGAHTGUb4FAwAMAxggAEBnwAABADoDBggA0BkwQACAzoABAgB0xkANkFrTMux1c8dQhrrwauz36ppN4GjovwHiMIN0cVwFQbIeccqiYxBcAz56bYBcgmTgWHimW76vvlg7cNQMVJCMhy8+US6VNo3nzgWU+o6p82bhU/UEu1RQqiUWS6ZNgkoDhcWCBcJc5ePz3RA9fdDZstr1koDZJ7pJy7NJ70shnb6e2Okp+3O+bvbKFlsGMDT66wEFCJJlolwPtN5N6Eq6+txIVZS38pqUKNdSTrb4jomjDQt2lYmOMfYyxF2vrHxEI5ou7UJmZdcbTZcqql4cf+B4sys1bxMruJYc53PlqVIGccyoMzA8Bv0WLBPlMoS3Fr/E03hDH1qOQgZaPq1pN7n0Hkua96EFu6xliL2er+yaPSGz8bn4K+B67IUkxuPPF+1GZ8Q5jRVcc1KpDA1cD3RKNQOUyFikW0/Fp3Zb+tR/7uE51opgVwx1rucruw1hSEKul1MKWN3R78Q7LNxb67CrKlXLEMJQ2u6JUc0AyYanXWm5GWPv2GMupMrfhC5j7rZ+Oqew1o/+03tMwBIgKo9v9J37ugXPNZhlEFs6d9QGkdcrKd8eorMrYq63oMfllGidDbH2h1QRVC1DCIdsuyCY/g7BxI13CZJ5YS1nYbiyeQGRhgW71q/eY/uNqjnBLp/omJXY6/nKvocwHsLLkUJmNcsXK7hmpVIZwNDpvR4Qv4HJRgM78bDl8b9olPINUvaGLC89WniLknvL4jqmzpnrP7l0+8d5cjUvpeqikFaed19aNV+G2OuFly9/Pvdxu2ysIv+mb0Pr9ZimOQlYd9nNa0nSvPrL4K4zMDQgSHYy7HdeALpm0G/BAADDBgYIANAZGIIBADoDHhAAoDNggAAAnQEDBADoDBggAEBnDGASWi9Ky8lm1ER+zz1Z5pYsbtT/bQHfQr4Y8oszFaGLIpvOCwB16LcHJNUQL2nbRHyRhlfOvltEzoJDBXoCG5wsPuknDAoYJP0WJHs5p1fh9RAvt7/4asADUt4UWUXOMu8gSHgrDQ9gCscCRbn853Tj9mL4fHbBrs+SvDjLTuwtcpUZQZjSgyzsAyCCHntAz3Tb1JArIUDkzCW85RPsihXlihMdK8Mu2BUijmYrexIcaqoSLC6Fadv8hfEBtcEkdBGL8NZKeE4+wa44Ua56ImdsLDKNmvzXNaIFuyxlXwgz88rGKLVAnO8drV9hfkB9qhmgExB1sglvlQp2FcpnHeoUqSlyVpwDMhyZaFyiY9IYJUqR7EVuPlqdtAenQzUDFCvc5Dt2SOqInMm5FLMMYpNDxEUNUa4YEbAO0HpBXG88/Nr4xrAAVGDYQ7DE8wj9sJ0whC6RM2/6AMGuyqJcNUXAYqksECZRw8PJ1QtdjdeE0Rdoih4bIH6jYwxpRlNaVjE2Dlhy1dR9fn+/IXot8zpEB/ytJonT4ZLY1ISxniOZ6/3LM/oqeECruyf1ZYckrTQ6vnOWU5wDCk1nz0sAPBk9EvfBHKYBUBNEw4NAeAkDv11rd9EmOC3wFgwEsXicY/IZNA48IOAlDftoMhQGAA0MEACgMzAEAwB0BgwQAKAzYIAAAJ0BA+SBJ2Dz62v4VfR77bVIAABFvw1QIcaqiUXDbFSS8yVb/Qh0m7Eqp05eYq4HQN/osQGa0f3NBX0lwmFvG5rMX6iJPhcv5vVMtw3Ha0FYDJwyA3oN7xcTC4U9B7ckaUEgTMAGgn+b+wa6IRyW/za6QYC4mDsvEBYDpwHmgAzyAmFKvCshEfQqRrqHCH3FAWExcPwMxgDJUIBdM5HYVjGv2T1d5QTCDgOExcApU80AFSaFDyVIxsOcORuHhuZeivMuB7Y5OdrIC4TFwFCoZoA6ECRTcyys94V5itpAWAz0jF4PwTLj45CASDyrJtblrP7RtzFHorwu9XcIcUJf8UBYDBwDPTZAC/ol3+LwZKwxfGvA2NjFvJ7pVr7qV/t4EjebcC6Io020iJgxYRMr9AVhMXDKIBr+5ICwGOgPg3kLBpoBwmKgT8ADOhF4gSKExUDfgAECAHQGhmAAgM6AAQIAdAYMEACgMzAHFEgu6j0g0h0AUE6vDVD65kYjZSXq9HspP5Ff3pzIbYQiDRFHmlfIiF8CpDrFemFCy9F0XgCoQ6+HYPwZ5TR+7GFN40YEyVhXJzsnTZeDVBYsBrHCoIAhMpw5IBmr1TAcJPu2odH0l47Oz0IuKoU3ONKxt8T/Z28lF3KRnjf2ei74fGyktXa13JTyQFle2DNiQ5z8jjd5iL3GonqBbR8AEQzHALF8xO6L/jT9oP/c0o7GdC6coLwg2QOtx/Mg78iVrkw8LPZ6fiBkBoZDzw2Q4SGIR/fmo4UVvNqzuluxQJcpSKYix8sjzg+dTlEMYjWdJwiZgaFQzQAdXJBMdMrf+kktnubbqxa+BDE7F/5P8u+E5mY+izO9Ng6dTlOcAzIcmWggZAYOTTUD1IEgWUbFp3kgs+sLMWhJZpeMCepkC4qbOnS6AwMhM9ASw5kDEs9f1gfKNf66gmSLR7m2Z/N2m3ayedWJ4IB0VvGw2OvVBEJmoE/0eB0Qz//kP5Gztw6IDdBySqPQCO+9dUC7gtri/jXV+hra2y9JFyS60iUnLhwPTmfHvQ5I5fPsI6un/XVL9ryUrw9Sn0UaB+QPgFCwEhoEAiEz0DwDGoKBLoGQGWgDeEDASzrcg5AZaAEYIABAZ2AIBgDoDBggAEBnwAABADoDBmgPHUnexNdWBWZ0ef1o977SbJ2B02EYBqjuiucEKSOhjYHeGo8tK5BEoWdfWW0XfmsVW8ZEkgOAQzEAAzSj+5spfW82+v91MeKvrIJkz3Tb15isQIqBqu2vXB5+nYFu6L0Bmt3f0JTW9PpX72iSgiCZf7jEIQymZ5FE9PN+uwhYOYVzJh5eKyJg7nxGi5UJKtVZ7rirPsEp0W8DJIZewvmh9VOLT1ZDkMw3XJKGMBUP482M6DdFwFj0KyzIdHb/i+gpOd+DMLNTumFvrDURsGbFythY+urMJ7jmr09wKvTaAC1+SevT7vL/KlKviSaOhUwEjO2H6Mnjc+XNeFjd3RplM+VG6omAHUqszJ8yQHDNU5/gNKhmgHzCYrHHXIghx3y8pqe25y8SQbIS+EkvPRtdhtLJ2tIOKijUS/rZH0EdEbDiHJDhyETjEitzUiK4Vrk+wVFSzQAdUJBMDjlGU1qajVf/P2B0E0wiSPYvoHNnX+l4o++9yesCuy196j/tLOhxyR5eZixyw5ijEAHzC65Vqk9wlPR2CJb7JA9vaoKCHsTf6RM98SAaECSr1r0/aet8qy4MizCWOY/Bw3di+URZbkxhID1kOaQIWJxYmYNKgmu++gTHzHCCUfkt0NU2H5HNBqgxQTJ+K5MXB5NIwa7P/WNBomK+cz6L7BtfWxXewno9pmlOPIzfWFUTAUuj1w3aEyvzl89dNxaBtzQNOCUQDV8b1cnMjt0cbIAgAgaOl36/hj9xIAIGjh0YoB6ShFPwW8Dk1TcAxwiGYACAzoAHBADoDBggAEBnwAABADoDBgg0gI6whyAZqEivDVBO6kFv9cIweM1O/nxVVAr7JNjVaF70inLzfOpNXAcSGX3KC2id3ntAbQRW8iee1fneaDPJJCJOlh9nNNrtiNLI+AVdjncUHh3RoCBZ7byAIXHiQ7BiDFLBQ9LeUeKJqXjYomCXSmM6UvL3ekfiqZjenDrE6aoLmfnzwpjnE1vosOj7i77GWfQ9fXzQt9ZJSspoO2fOSzUrIbJ8kip5Sa/pu55KY2bPvEegO07bAM2u6WKUBYS6BLRCBLt82MS89BGrQJgPf164o6nYMbVfiZwtgzraP/rzNdbR90Rm8L1TOE3gEySLKZ/CnRefyFn89UBX9N4A2Z/y9ZjM9fmWF/QlGquyIwECWrFYxLwSogXCbCx+0XS0oY80dkOU4Wmd6Qo5mJ0rRSTO2/jykS4pr7zoFk4rp2r5fHm5W7nvUUKj9Qlap5oBSuQv0s1wqWOPeUierubTrgkjpOaA+Ak5ootrbV5KBLTqYBPzao1SHSIPLKExFmWWLocxPC3cP1M4rTVseWnxHoFuqGaADihIto96ojWHfnpqQXqFX0BrEBSVGHlSV//pY7dlsyXq5Lc50T+SXodXOK0FXHlR2O8RGCbDmQMST2EW7MopAyZP5tj1J8+v2TxBgICWT7BrrGZIeZLiIB6CNS9azD6b95jR/dVEjABfIwx+Hrdw2gGpJHK2z6HvESinxwao8LYjN1/TFIkXdEP3M37i6mFeck2xma/oV3dPalI3OS47gkj3pL4vJvddbemtZQ+BseeFX4creVOVfzVhWyZm9uPM3RkfF1ogP503O6OvtHzZPZIdeqLrrsYw2Z+X8ntkp5t7BMpBNDwAoDOGMwQDABwdMEAAgM6AAQIAdAYMEACgM2CAAACdAQMEAOgMGKDO2I/QroaO+oYIGBgwlQyQEobKb+WLwBSNCmiBngFjCOKo7AEVBcJCPxkMmqZBEbA68Oeu3y9pi5XFIIJKK6HZi3F/I/yG6OmDzpZzUvHJHDR4S5/35vfPDVzfDze+EZ5c74lu0nNwJLs3HEN+/53ktdOf5fbx0zrJoyD9rrzKh+vb6VF5SZDXz6K2ze+jn328Ec3zdaZL78inzldSYbZvqluvJ1M661qhrxn8nXbx+5dzelWFoeXFV9g3+gHQNDgHZBeDKhPz8gtMKT2gopiX183XAZksZpWwuBSdccO6MtwBYwW7IvLCSGMwprWsF7WZBnwytwlo+fPpFQHzXK+srqsjvDAYHFCDygYoJxAmNrPvVheDChABs4h5+c+qgydTC8TX2NH6VZzDI9gVROW8CEMio9GfdL3sY62zSGEx//VCBNf0sC79DQDtUnsOqFZbDRCYsol5lV1SGoeksy4uxZDiI+uQNQS7quflB3FwdyplUYWofHquBzEv0EMaHILFYheYiuiyGVo3RmkKT/IaQpGCXXEURe8rEJXPsuu1UNcA1OBgBsgqoFVTYMqNGl5Mrl7oarwmHn1JPIJdCc2KVqlh1WQe+DWIhGhhMc/1gupav05v/H4AYKf2HFDoJKZTzCtKYCoA7sQjYUDMYZOc43AJdql5lqZFq3jC+GE9zg19ysvnyydPUKvzSANZEAFzX6+Nui7kZaTvL9YDgUCOWJCMn+b8himZ5AUA9I0ezAG1w+KR17MYk88AgN5xdB4QLxiUL3eMhXsAgH4CTWgAQGcc7RAMANB/YIAAAJ0BAwQA6AzMAR2KXIT6jtZYHjB4SlUJQCmV5TiK4UOZ1IMft5THKaBkLihUvuNEOJY2Ycq2NEHj9cKfMF9Os6/r96gdVh6CFYNRT9OgVEQGgm7IDEkD4DDM6P5GfdZc9tm3DU3mL9REsEETVPaA7JaZl+T3RJDMkxeVrHC9ZL0QD5Eut7QeT8UxMUR6+6KLuXhqpOuJ3PksRQ6/CiJpEi0Apv9nrl06SNl1Gez3Vf3WFGiz46oXd17K2oSz7GSpx7261XUafH/K6sx9jxLsHpCrXpjCsdi+EtVe+uWNNzgJ3RNBMok9L8zs/pdobDoPWujrJrneZCo73NtGpJ+f0cfPN9qMLuhaHI4R8+KGKWOu5LjVkMKQcVvcmPziaE2X3VUGGShcqt1kx18vcW2CsZXdLzZXBzOfnK8kaLf8Hrnw1cvs/sY4xpsydmX14m27grj20i2VDVAxGNW8F/0QJFO48rK6uzUmfwv5FNdKIufNyPO7VYiY1z5Jg2K3V+RIPHSMBhUiOtZo2d1lWP371vu44yQBqqwttKOtV5TIfc6E6m1CYyn7QtwRp9hcSpyoWpZPtnPifo3Pw+6RlYD2UnqOfbxtlwloLzJEyWjnXVN7Dqjifc7TkiCZF56QM65ndXmLtCXmVSI61mjZfWX43NJOdLgZdxxhKL/TRv1NXi21FkXOXGX3is01iei8khhhuJJ64QeT9LL0sTJPOqWk7Za1F/bI52wYC0PILunBOiDDM0i21ipIjH+XUyLDiFp1la20kM/iE6pVcTTGXgbhAtE350V06PH2lf4KM7TgThTU+RznbAuf2FyTiLJLou+Rv7083yb7lexKuRGq03aV8VHJaz7AG+ZgBuiwgmR+UslS8US5CfGA2shntOhYJAFlOBejjq8/K3GvxnT5S3S0739+A1uzXqxtohQ1nNkTm0vhSVbhIUTfK5FeeCvsTUTfo0r1sq9i6auXym1XkBmfbJjZF2rPAYW6jwcXJLOi5xDm+lrLM/oKeIrcz9rIp090rA18ZeBOMKHpxZaE/RH954vGE9HR/BNAgnr1Ym8TAVjF5uqRtol3Nems7kOsMJyvXrJ0atu/7/Z6iWu7bFB/SUPFE+06LW89EY3DSmgwQNjL4bdWTTzR2SCELDcAbdCDOSAAqgGxueMBBggMBl4iwMOH+Th73QyGDYZgAIDOgAcEAOgMGCAAQGfAAAEAOgNzQAZqwZZe3BUcTd0ABxUrU6+dZTBkA+XrrM4ap9l6AWFU8oCStxDmFrroLAty7C9J8GiVJe71UStvWTpBLbHv32pVH23VWePtpRBHFbrmMZZiX2n7ekOl8hAMgmQNIwMXDy9WVr7K+ZgQ3k2gKFdT9ZLFeontYU3jHomA9YnjEySziX/l9hWuxxIGhaBSOazICUypNOZq2fxv3GUo5WBiZT7c90+d0p2XhP06Y3z1UjgW216i6kWVR1wwsM50+avc1xycvqmV28dFg5PQceJTjQuSWUSrZudj0RKVaFWZqFMMwxEr8wFRrtZg2ZDdl4yzA3kqG6D+C5IVRatmdH1BqWhVqahTZQLKYCHpaIcWK/MBUS4XMSJnbLh1P+E5vo+8xwgUteeAKt2TIgGCVjGiXDnRqtk1idF/9vSJESTz0ZYo1yHFylyIziuBKFcEwuD+TvrJA22v+v8SpgsaHILFYjz9k61u49B6LOwEzdj9SRulGIvXEHVy00IZooWwGgSiXA3RhKd9nBzMAB1WkEzd8PH5Qgy/vo3hgyJG1IkZn+vcLx6zJ28bZTi0WNkeoqMLbwWiXAk8iSw8ruh7rDR5WlNvHDCV34IVRxc8JBMPNflmwv2WSO7Jv71wvdUQqHOu5PXsb91C4Eaz/+ZCNcQ0E7Rej2kq8/m5lw9Jkp5df9GC5eHdmt6+Lmiels9dhlJC34IZ5ahXLzbK8u/Ky346Sem9Ve0ll65wn/bS6uPu++f6vBBTyH8CzxcFear2tuRmv9z13lIeL1gJDQSqw0CUCxyaHswBAQBOFRggAEBnYAgGAOgMeEAAgM6AAQIAdAYMEACgM47YAPGr5TqLx/Lw+pM0pKDxhZOHpNl66TO8LqiZ8AdeByTqLPhjfqqOD1nFQ22flQwQ39C0kHoLvcHNNYZugPDWYRlKe+lLPttqnzEU7YSvDVb2gHglaxKHw1tzq3HbAcJb7QpvnQY6Gr5ufN+JUEWMrXNBsuSceyJSVCYsFoM7n+p8hSX7lqX6+yEmDJ93P2xAUTgWWC976Yy8OOtsr1JUecQF669wlnWfBTMUw2XsealQL7p8Yme1evHWdZZPF/Y2rc7DK8Nfz438GNfKh4QYyN+osJ6zjzeiua2dObC179w+e53522dWlmRX/je++mSqhqEU4fRuMbYG54DiBMkYm4iUTVhscSlupRYWiwfCW5WRnWBM68SzEpvZYV158deLvXxl9eI7Z/6YOkcZMujVE6XuGtqEtOvJfL8/eBmImF4lSsTYKhugZgXJNGzJ9Y1LRKQWosrzwmIscLVLhcXqAOGtKgjDLKPfn6xPMIklL8I38tZLnDCc+5yid9JV7lgYq3/f+i+ur2Q+5wedjXZUd5RavT/0UUyvXTG22nNAFe+3FZeIVE5YjC3p5sPdCeogOowEwlsWuDMaEhgWbHkpFWorKZ+VNsTfPre0Ew+gGXdG4X98px36mzxFbo2jENMTrSFUjK3BIVgLGMJiPPxqTU8Fwlse9rV6wnHVS53y2c8ZzeofffN9Fw+48faV/goztOCOGfMwaoJjENPL4ffUDmaAfAJTbpRLOLl6oatx3aGEDXFThcWH8JYP1YAm80f1VA4loF585assYMeGRNy/ZPSiPED1dwjnYhT+JVyNz+2YLn+JB8/3v6BOGNeufaj67o+YHk8iC88oqH3b8IuxdS5IZn8LYcIVoCaHfW8zwijkQaDyn5xXXSstYjrzv59O4jlu1ksu3d7bBHu9KEOS7jyQ8JabfH6yevPfP3d9+8qnsNeL75zcudIhhPj9w/aKbujJkbcEfT7SdcTDHO1pWO8fk7uHtnwmb8F8/cGHvo+56+hzWOusTTE9e17c7J/PJ8Y2gGh4rgD3a7xqqMqB8BYA/aDfc0AC+SanrclnAECn9NYAsWvPs/LzcfaKFwBwXECQDADQGb0fggEAjhcYIABAZ8AAAQA6AwYIANAZMEAAgM6AAQIAdAYMEACgM2CAAACdAQMEAOgIov8HeRp0PgCHJ4UAAAAASUVORK5CYII=;" vertex="1" parent="1">
          <mxGeometry x="959.5" y="760" width="288" height="203" as="geometry" />
        </mxCell>
        <mxCell id="AO4dmCxWEqPezHxjVxyz-8" style="edgeStyle=orthogonalEdgeStyle;rounded=0;orthogonalLoop=1;jettySize=auto;html=1;entryX=0.006;entryY=0.199;entryDx=0;entryDy=0;entryPerimeter=0;strokeWidth=3;" edge="1" parent="1" source="AO4dmCxWEqPezHxjVxyz-2" target="AO4dmCxWEqPezHxjVxyz-4">
          <mxGeometry relative="1" as="geometry" />
        </mxCell>
        <mxCell id="AO4dmCxWEqPezHxjVxyz-9" style="edgeStyle=orthogonalEdgeStyle;rounded=0;orthogonalLoop=1;jettySize=auto;html=1;entryX=0.01;entryY=0.206;entryDx=0;entryDy=0;entryPerimeter=0;exitX=0.992;exitY=0.179;exitDx=0;exitDy=0;exitPerimeter=0;strokeWidth=3;" edge="1" parent="1" source="AO4dmCxWEqPezHxjVxyz-4" target="AO4dmCxWEqPezHxjVxyz-5">
          <mxGeometry relative="1" as="geometry" />
        </mxCell>
        <mxCell id="AO4dmCxWEqPezHxjVxyz-10" style="edgeStyle=orthogonalEdgeStyle;rounded=0;orthogonalLoop=1;jettySize=auto;html=1;entryX=-0.005;entryY=0.334;entryDx=0;entryDy=0;entryPerimeter=0;strokeWidth=3;" edge="1" parent="1" source="AO4dmCxWEqPezHxjVxyz-3" target="AO4dmCxWEqPezHxjVxyz-7">
          <mxGeometry relative="1" as="geometry" />
        </mxCell>
        <mxCell id="AO4dmCxWEqPezHxjVxyz-11" style="edgeStyle=orthogonalEdgeStyle;rounded=0;orthogonalLoop=1;jettySize=auto;html=1;entryX=0.002;entryY=0.217;entryDx=0;entryDy=0;entryPerimeter=0;exitX=1;exitY=0.25;exitDx=0;exitDy=0;strokeWidth=3;" edge="1" parent="1" source="AO4dmCxWEqPezHxjVxyz-7" target="AO4dmCxWEqPezHxjVxyz-6">
          <mxGeometry relative="1" as="geometry" />
        </mxCell>
        <mxCell id="AO4dmCxWEqPezHxjVxyz-12" value="" style="rounded=0;whiteSpace=wrap;html=1;fillColor=none;strokeWidth=4;" vertex="1" parent="1">
          <mxGeometry x="380" y="370" width="1170" height="640" as="geometry" />
        </mxCell>
      </root>
    </mxGraphModel>
  </diagram>
</mxfile>
